<svg shape-rendering="geometricPrecision" text-rendering="geometricPrecision" viewBox="0 0 532 475" xmlns="http://www.w3.org/2000/svg">
<path d="m266 474.5c146.63 0 265.5-60.442 265.5-135s-118.87-135-265.5-135-265.5 60.442-265.5 135 118.87 135 265.5 135z" fill="#fff"/>
<path d="M246.525,353.382l-54.356-31.019c-.888-.51-2.32-.499-3.208.011l-.566.322c-.888.51-.877,1.331.011,1.83l18.526,10.351-18.948,10.939-18.303-10.562c-.888-.51-2.32-.51-3.197,0l-.566.322c-.888.511-.888,1.343,0,1.853l55.277,31.896.599-.71.3.177l21.822-12.569.167.099.322-.377.466-.266-.167-.089l1.821-2.208Z" fill="#f5f5f5"/>
<path d="M51.2325,387.902L25.5411,373.079c-1.3881-.797-1.3881-2.092,0-2.89L297.759,213.098c1.388-.797,3.62-.797,5.009,0l25.691,14.823c1.388.797,1.388,2.092,0,2.89L56.2412,387.902c-1.3881.797-3.6206.797-5.0087,0Z" fill="#f5f5f5"/>
<path d="M154.674,361.659c6.593,3.706,6.659,9.841.144,13.691-6.505,3.849-17.127,3.96-23.72.255-6.594-3.706-6.66-9.841-.145-13.69c6.505-3.861,17.127-3.972,23.721-.256Z" fill="#f5f5f5"/>
<path d="M230.504,419.116L252.88,405.42c.827-.512.827-1.329,0-1.841l-22.376-13.696c-.826-.511-2.172-.511-3.008,0L205.12,403.579c-.827.512-.827,1.329,0,1.841l22.376,13.696c.836.512,2.182.512,3.008,0Z" fill="#f5f5f5"/>
<g transform="translate(1e-6 1e-6)">
<path d="M208.508,402.685l19.495-11.245c.365-.21.838-.319,1.303-.319.474,0,.947.1,1.312.319l19.486,11.245c.364.209.537.482.537.755v1.421c0,.273-.173.546-.537.756l-19.486,11.244c-.365.21-.838.319-1.312.319s-.948-.1-1.303-.319l-19.495-11.244c-.364-.21-.537-.483-.537-.756v-1.421c0-.264.173-.537.537-.755Z" fill="#fa8c16"/>
<path d="M207.971,403.44v1.421c0,.273.173.546.537.756l19.495,11.244c.365.21.838.319,1.303.319v-26.059c-.474,0-.948.1-1.303.319l-19.495,11.245c-.364.218-.537.491-.537.755Z" opacity=".1"/>
<path d="M229.307,391.121v26.05c.473,0,.947-.1,1.311-.319l19.486-11.245c.365-.209.538-.482.538-.755v-1.421c0-.273-.173-.546-.538-.755l-19.486-11.245c-.364-.201-.838-.31-1.311-.31Z" opacity=".3"/>
<path d="M230.618,415.45l19.495-11.245c.72-.419.72-1.092,0-1.511l-19.495-11.245c-.72-.419-1.895-.419-2.614,0l-19.495,11.245c-.72.419-.72,1.092,0,1.511l19.495,11.245c.719.419,1.894.419,2.614,0Z" fill="#fa8c16"/>
<path d="M230.618,415.45l19.495-11.245c.72-.419.72-1.092,0-1.511l-19.495-11.245c-.72-.419-1.895-.419-2.614,0l-19.495,11.245c-.72.419-.72,1.092,0,1.511l19.495,11.245c.719.419,1.894.419,2.614,0Z" fill="#fff" opacity=".5"/>
<path d="M229.307,391.13c.473,0,.947.101,1.311.31l19.495,11.245c.72.419.72,1.092,0,1.511l-19.495,11.245c-.364.21-.838.31-1.311.31v-24.621Z" opacity=".05"/>
<path d="M217.273,402.029l8.618-25.895c0-.009,0-.009.009-.018l.009-.028c.136-.364.446-.719.938-1.001c1.357-.783,3.553-.783,4.91,0c.492.282.802.637.939,1.001h.009l.009.028c0,0,0,0,0,.009l8.627,25.895c.792,2.249-.319,4.68-3.343,6.428-4.801,2.768-12.572,2.768-17.373,0-3.033-1.739-4.145-4.17-3.352-6.419Z" fill="#fa8c16"/>
<path d="M223.421,383.564l.009-.028l1.23-3.678c-.201.628-.018,1.284.537,1.848.21.21.456.41.766.583c1.849,1.065,4.846,1.065,6.695,0c.31-.182.565-.373.766-.583.564-.574.737-1.229.537-1.857l1.23,3.687.009.018c.2.62.109,1.257-.273,1.849-.292.455-.747.883-1.376,1.247-.446.255-.956.446-1.485.61-1.722.519-3.771.519-5.493,0-.528-.164-1.039-.355-1.485-.61-.629-.364-1.084-.792-1.376-1.247-.4-.592-.491-1.229-.291-1.839Z" fill="#fafafa"/>
<path d="M218.483,398.396l.009-.028l1.23-3.687c-.2.61-.219,1.238-.073,1.848.155.646.501,1.275,1.039,1.857.446.483,1.011.929,1.712,1.339c3.817,2.203,9.994,2.203,13.811,0c.701-.401,1.266-.856,1.712-1.339.547-.582.884-1.22,1.039-1.857.146-.61.137-1.238-.064-1.848l1.221,3.678.009.037c.2.61.246,1.238.137,1.857-.255,1.402-1.303,2.768-3.171,3.842-4.309,2.486-11.287,2.486-15.596,0-1.858-1.074-2.915-2.44-3.17-3.842-.091-.619-.055-1.247.155-1.857Z" fill="#fafafa"/>
<path d="M220.953,390.975l.009-.027l1.23-3.688c-.201.61-.155,1.248.118,1.849.31.682.911,1.32,1.822,1.857.018.009.037.027.055.036c2.833,1.63,7.424,1.63,10.248,0c.019-.009.037-.027.055-.036.911-.537,1.512-1.175,1.822-1.857.273-.61.319-1.239.118-1.849l1.23,3.679.009.027c.201.61.201,1.247,0,1.858-.218.646-.674,1.283-1.348,1.848-.291.246-.61.473-.984.692-.947.546-2.077.938-3.27,1.174-1.777.346-3.717.346-5.493,0-1.194-.236-2.314-.619-3.271-1.174-.373-.219-.701-.446-.984-.692-.674-.565-1.129-1.193-1.348-1.848-.219-.601-.219-1.23-.018-1.849Z" fill="#fafafa"/>
<path d="M229.307,374.504c.892,0,1.776.191,2.459.583.492.282.802.637.939,1.001h.009l.009.028c0,0,0,0,0,.009l8.627,25.895c.792,2.249-.319,4.68-3.343,6.428-2.396,1.384-5.539,2.076-8.682,2.076.027,0,.045-.009.073-.009c3.89-.619,6.513-4.334,5.967-8.24l-3.59-25.777-2.468-1.994Z" opacity=".1"/>
<path d="M231.766,377.928c1.357-.783,1.357-2.049,0-2.832s-3.553-.783-4.91,0-1.357,2.049,0,2.832c1.348.783,3.553.783,4.91,0Z" fill="#fa8c16"/>
<path d="M231.766,377.928c1.357-.783,1.357-2.049,0-2.832s-3.553-.783-4.91,0-1.357,2.049,0,2.832c1.348.783,3.553.783,4.91,0Z" fill="#fff" opacity=".5"/>
</g>
<path d="M418.987,376.681l20.202-11.66c.755-.433.755-1.132,0-1.564l-20.202-11.66c-.755-.433-1.965-.433-2.719,0l-20.202,11.66c-.755.432-.755,1.131,0,1.564l20.202,11.66c.754.433,1.975.433,2.719,0Z" fill="#f5f5f5"/>
<g transform="translate(1e-6)">
<path d="M398.486,361.438l17.937-10.351c.333-.2.766-.289,1.199-.289s.877.1,1.21.289l17.937,10.351c.333.199.499.443.499.699v1.309c0,.255-.166.499-.499.699l-17.937,10.35c-.333.2-.777.289-1.21.289s-.866-.1-1.199-.289l-17.937-10.35c-.333-.2-.5-.444-.5-.699v-1.309c.011-.256.167-.5.5-.699Z" fill="#fa8c16"/>
<path d="M397.998,362.137v1.309c0,.255.167.499.5.699l17.937,10.35c.333.2.766.289,1.199.289v-23.986c-.433,0-.866.1-1.199.289l-17.937,10.351c-.345.199-.5.443-.5.699Z" opacity=".1"/>
<path d="M417.633,350.798v23.986c.433,0,.877-.1,1.21-.289l17.937-10.35c.333-.2.499-.444.499-.699v-1.309c0-.256-.166-.5-.499-.699l-17.937-10.351c-.333-.2-.777-.289-1.21-.289Z" opacity=".3"/>
<path d="M418.843,373.186l17.938-10.35c.666-.389.666-1.01,0-1.387l-17.938-10.351c-.666-.388-1.742-.388-2.408,0l-17.937,10.351c-.666.388-.666,1.009,0,1.387l17.937,10.35c.655.378,1.742.378,2.408,0Z" fill="#fa8c16"/>
<path d="M418.843,373.186l17.938-10.35c.666-.389.666-1.01,0-1.387l-17.938-10.351c-.666-.388-1.742-.388-2.408,0l-17.937,10.351c-.666.388-.666,1.009,0,1.387l17.937,10.35c.655.378,1.742.378,2.408,0Z" fill="#fff" opacity=".5"/>
<path d="M417.633,350.798c.433,0,.877.1,1.21.289l17.937,10.351c.666.388.666,1.009,0,1.386l-17.937,10.351c-.333.189-.766.289-1.21.289v-22.666Z" opacity=".05"/>
<path d="M406.556,360.828l7.936-23.831v-.011l.011-.022c.123-.333.411-.666.866-.921c1.254-.721,3.275-.721,4.518,0c.455.267.744.588.866.921l.011.022c0,0,0,0,0,.011l7.936,23.842c.733,2.074-.289,4.315-3.075,5.913-4.417,2.552-11.577,2.552-15.994,0-2.775-1.609-3.797-3.85-3.075-5.924Z" fill="#fa8c16"/>
<path d="M412.217,343.831l.011-.022l1.132-3.384c-.189.577-.022,1.187.489,1.709.188.188.421.377.71.543c1.698.977,4.462.977,6.16,0c.289-.166.522-.344.711-.543.51-.522.677-1.132.488-1.709l1.132,3.395.011.022c.189.566.1,1.154-.244,1.709-.266.421-.688.81-1.265,1.142-.411.233-.877.411-1.366.566-1.587.477-3.474.477-5.061,0-.488-.144-.955-.321-1.365-.566-.577-.332-.999-.732-1.266-1.142-.377-.566-.466-1.154-.277-1.72Z" fill="#fafafa"/>
<path d="M407.666,357.488l.011-.022l1.132-3.395c-.189.566-.2,1.143-.067,1.709.145.588.456,1.176.955,1.708.411.444.932.855,1.576,1.232c3.508,2.03,9.202,2.03,12.709,0c.644-.377,1.166-.788,1.577-1.232.499-.543.81-1.12.954-1.708.133-.566.122-1.143-.066-1.698l1.132,3.384.011.033c.189.566.222,1.143.122,1.709-.233,1.287-1.199,2.552-2.919,3.539-3.963,2.285-10.39,2.285-14.352,0-1.71-.987-2.686-2.241-2.92-3.539-.077-.577-.044-1.154.145-1.72Z" fill="#fafafa"/>
<path d="M409.942,350.654l.011-.022l1.132-3.395c-.189.566-.144,1.143.111,1.709.288.621.843,1.22,1.676,1.708.022.011.033.022.055.034c2.609,1.508,6.827,1.508,9.435,0c.022-.012.034-.023.056-.034.832-.499,1.398-1.087,1.676-1.708.255-.555.288-1.143.111-1.709l1.132,3.395.011.022c.189.566.189,1.143,0,1.709-.2.599-.621,1.176-1.243,1.697-.266.222-.566.433-.91.633-.877.51-1.909.865-3.008,1.076-1.643.321-3.419.321-5.062,0-1.099-.211-2.131-.577-3.008-1.076-.344-.2-.644-.411-.91-.633-.622-.521-1.043-1.098-1.243-1.697-.211-.555-.211-1.143-.022-1.709Z" fill="#fafafa"/>
<path d="M417.633,335.5c.821,0,1.631.177,2.264.543.455.266.744.588.866.921l.011.022c0,0,0,0,0,.011l7.936,23.842c.733,2.074-.288,4.315-3.074,5.913-2.209,1.276-5.106,1.908-7.992,1.908.022,0,.044-.011.067-.011c3.585-.577,5.993-3.994,5.494-7.577l-3.297-23.731-2.275-1.841Z" opacity=".1"/>
<path d="M419.898,338.65c1.254-.721,1.254-1.886,0-2.607s-3.275-.721-4.518,0c-1.254.721-1.254,1.886,0,2.607c1.254.722,3.264.722,4.518,0Z" fill="#fa8c16"/>
<path d="M419.898,338.65c1.254-.721,1.254-1.886,0-2.607s-3.275-.721-4.518,0c-1.254.721-1.254,1.886,0,2.607c1.254.722,3.264.722,4.518,0Z" fill="#fff" opacity=".5"/>
</g>
<g transform="translate(4e-6 2e-6)">
<path d="m50.491 357.3s2.7195-13.291-0.4107-25.317c-3.1301-12.026-9.8788-21.09-17.837-24.396-7.9696-3.306-17.027 2.063-9.9565 10.073s20.89 18.35 21.744 39.995l6.4601-0.355z" fill="#52c41a"/>
<path d="m50.491 357.3s2.7195-13.291-0.4107-25.317c-3.1301-12.026-9.8788-21.09-17.837-24.396-7.9696-3.306-17.027 2.063-9.9565 10.073s20.89 18.35 21.744 39.995l6.4601-0.355z" opacity=".15"/>
<path d="M49.1816,353.194c.0333,0,.0666.011.0999,0c.2553-.023.444-.233.4218-.488-1.6983-24.053-15.24-38.275-22.1552-42.436-.2109-.133-.4995-.055-.6327.156-.1332.222-.0555.499.1554.632c6.782,4.072,20.0351,18.039,21.7223,41.714.0111.222.1776.388.3885.422Z" fill="#fff"/>
</g>
<g transform="translate(7e-6 1e-6)">
<path d="M10.8098,336.242c-.87689,2.685,1.0323,4.548,2.8304,6.057c1.3875,1.154,2.8971,2.419,3.2856,4.183.7659,3.572-3.4632,6.867-2.553,10.406.3885,1.487,1.6317,2.607,2.9859,3.328c1.1211.61,2.3309.999,3.5075,1.498.5883.177,1.1766.322,1.7649.422c1.7315.299,3.563.809,4.8062,2.141c1.9535,2.119,1.7094,5.38,2.4086,8.176.0111.033.0222.067.0222.1c1.4985,5.813,8.4914,8.199,13.3864,4.715l9.8788-7.034c3.9071-5.258,2.9193-14.688-3.3521-17.773-1.332-.654-2.8527-1.031-3.9183-2.074-1.2875-1.254-1.5983-3.195-1.676-4.993-.0777-1.797,0-3.661-.7326-5.314-1.0212-2.285-3.4632-3.683-5.9273-4.105-2.8859-.499-5.783.677-8.5135-.321-2.7417-.999-5.2835-2.607-8.114-3.317-3.1079-.777-6.6932-.355-9.013,2.152-.4773.51-.8547,1.098-1.0767,1.753Z" fill="#95de64"/>
<path d="M39.7466,352.029c-.0222-.067-.0666-.122-.1221-.167-7.348-10.395-18.8585-15.332-22.7546-16.197-.222-.045-.4328.089-.4883.31-.0444.222.0888.433.3107.489c3.6852.821,14.3743,5.38,21.578,14.921-10.2118-3.273-17.8373,1.509-17.915,1.564-.1887.123-.2442.378-.1221.566.0777.111.1998.178.333.189.0777,0,.1665-.022.2331-.067.0777-.055,7.9252-4.981,18.3035-1.109c3.774,5.425,6.3824,12.359,6.116,20.99-.0111.211.1554.399.3663.422.0111,0,.0222,0,.0333,0c.222.011.4107-.167.4218-.4.2664-8.864-2.4198-15.953-6.2936-21.511Z" fill="#fff"/>
</g>
<path d="m321.48 20.847-5.694-3.306-266.63 153.84v200.76c0 1.931 0.677 3.284 1.7648 3.917h0.0111l5.6831 3.306c1.0989 0.632 2.6196 0.543 4.2956-0.422l254.5-146.85c3.352-1.931 6.071-6.635 6.071-10.506v-200.74z" fill="#d9d9d9"/>
<path d="m54.854 375.45c0 3.872 2.7195 5.437 6.0716 3.506l254.5-146.85c3.352-1.931 6.072-6.635 6.072-10.506v-200.76l-266.64 153.85v200.76z" fill="#096dd9"/>
<path d="m54.854 375.45c0 3.872 2.7195 5.437 6.0716 3.506l254.5-146.85c3.352-1.931 6.072-6.635 6.072-10.506v-200.76l-266.64 153.85v200.76z" fill="#fff" stroke="#f5f5f5" stroke-miterlimit="10"/>
<path d="m54.854 174.69v23.753l266.63-153.84v-23.753l-266.63 153.84z" fill="#1890ff"/>
<path d="m54.854 198.44-5.6942-3.306v-23.753l5.6942 3.306v23.753z" fill="#096dd9"/>
<path d="m54.854 198.44-5.6942-3.306v-23.753l5.6942 3.306v23.753z" opacity=".2"/>
<path d="m265.48 62.55v5.658c0 1.1538 0.822 1.6308 1.821 1.0539l37.106-21.467v-9.8516l-37.106 21.467c-0.999 0.5658-1.821 1.9859-1.821 3.1397z" fill="#fafafa"/>
<path d="M313.968,32.4066c1.01-.5769,1.821-.1109,1.821,1.0539v5.6581c0,1.1649-.811,2.5738-1.821,3.1507L304.4,47.7942v-9.8516l9.568-5.536Z" fill="#455a64"/>
<path d="M313.268,40.1614l-1.066-.3328c.111-.4549.167-.9208.167-1.3757c0-1.0872-.355-1.9193-.977-2.2743-.455-.2662-1.01-.2441-1.554.0777-1.199.6878-2.131,2.6404-2.131,4.4376c0,1.0873.355,1.9193.977,2.2743.211.1221.433.1776.677.1776.288,0,.588-.0888.877-.2552.721-.4105,1.343-1.2869,1.72-2.3076l1.066.3328c.044.0111.078.0222.122.0222.166,0,.322-.1109.377-.2773.067-.2108-.044-.4327-.255-.4993Zm-3.43,2.0413c-.3.1665-.555.1997-.766.0777-.355-.2108-.577-.8099-.577-1.5975c0-1.4867.799-3.2063,1.732-3.7499.177-.0998.333-.1553.477-.1553.1,0,.2.0222.289.0777.355.2108.577.8098.577,1.5975.011,1.4977-.788,3.2062-1.732,3.7498Z" fill="#fafafa"/>
<path d="m314.08 0.94365c-1.099-0.67674-2.642-0.59908-4.351 0.38829l-254.5 146.84c-3.3521 1.931-6.0715 6.635-6.0715 10.506v12.703l5.6942 3.306 266.63-153.84v-12.714c0-1.9193-0.666-3.2728-1.753-3.9051-1.021-0.59908-4.673-2.6848-5.65-3.2839z" fill="#d9d9d9"/>
<path d="m54.854 161.99c0-3.871 2.7195-8.575 6.0716-10.506l254.48-146.84c3.352-1.9304 6.072-0.3661 6.072 3.5058v12.703l-266.63 153.84v-12.703z" fill="#f0f0f0"/>
<path d="M319.784,4.26071c-1.11-.68784-2.653-.62127-4.374.3772L60.9254,151.48c-1.6761.965-3.1968,2.63-4.2846,4.527l-5.7053-3.295c1.11-1.909,2.6196-3.573,4.3068-4.538L309.727,1.32076c1.71-.97629,3.252-1.053949,4.34-.377205.999.599085,4.64,2.684785,5.661,3.272775.011.02219.045.03329.056.04438Z" fill="#d9d9d9"/>
<path d="M292.342,25.3504c-1.577.9097-2.842,3.1175-2.842,4.9258c0,1.8195,1.276,2.5517,2.842,1.642c1.576-.9097,2.841-3.1175,2.841-4.9258.011-1.8084-1.265-2.5406-2.841-1.642Z" fill="#52c41a"/>
<path d="M302.308,19.6151c-1.576.9097-2.841,3.1174-2.841,4.9258s1.276,2.5516,2.841,1.6419c1.577-.9097,2.842-3.1174,2.842-4.9258s-1.277-2.5406-2.842-1.6419Z" fill="#fa8c16"/>
<path d="m312.26 13.89c-1.576 0.9097-2.841 3.1174-2.841 4.9258 0 1.8194 1.276 2.5517 2.841 1.6419 1.577-0.9097 2.842-3.1174 2.842-4.9258 0-1.8194-1.265-2.5516-2.842-1.6419z" fill="#f5222d"/>
<path d="M74.1789,298.001c-.1887,0-.3663-.044-.5328-.144-.333-.189-.5328-.544-.5328-.921v-65.089c0-.378.1998-.733.5328-.921l78.0869-45.054c.333-.188.733-.188,1.066,0c.333.189.532.544.532.921v65.079c0,.377-.199.732-.532.92L74.7116,297.846c-.1553.111-.344.155-.5327.155Zm1.0766-65.533v62.615L151.2,251.261v-62.615L75.2555,232.468Z" fill="#40a9ff"/>
<path d="M75.101,283.024l-1.8315-1.087L96.901,242.098c.2997-.499.9324-.666,1.443-.389l15.24,8.632l16.072-32.162c.145-.3.422-.511.755-.566.322-.067.666.022.91.244l21.656,19.115-1.41,1.598-20.623-18.195-15.961,31.929c-.134.267-.367.455-.644.544-.278.089-.577.055-.833-.089l-15.3063-8.675-23.0987,38.94Z" fill="#40a9ff"/>
<path d="M109.455,234.343c-.589,0-1.144-.144-1.654-.433-1.155-.665-1.787-1.964-1.787-3.672c0-3.062,2.075-6.657,4.728-8.188c1.476-.843,2.919-.954,4.074-.288c1.154.666,1.787,1.964,1.787,3.672c0,3.062-2.076,6.657-4.729,8.188-.821.477-1.654.721-2.419.721Zm3.718-10.75c-.366,0-.81.144-1.288.421-1.953,1.121-3.596,3.972-3.596,6.224c0,.854.233,1.476.655,1.72.422.233,1.077.133,1.809-.289c1.954-1.12,3.597-3.972,3.597-6.224c0-.854-.233-1.475-.655-1.719-.145-.089-.322-.133-.522-.133Z" fill="#40a9ff"/>
<path d="M161.71,183.942L227.454,146c1.499-.865,2.709-.166,2.709,1.564v5.481c0,1.731-1.21,3.827-2.709,4.693L161.71,195.68c-1.498.865-2.708.166-2.708-1.565v-5.48c0-1.731,1.21-3.828,2.708-4.693Z" fill="#096dd9"/>
<path d="M160.09,203.357l48.661-28.08c.6-.343,1.088-.066,1.088.622v3.361c0,.688-.488,1.531-1.088,1.875l-48.661,28.08c-.6.343-1.088.066-1.088-.622v-3.361c0-.688.488-1.52,1.088-1.875Z" fill="#f5f5f5"/>
<path d="M159.002,218.19c-.222,0-.422-.111-.544-.311-.177-.299-.066-.688.233-.854l96.435-55.648c.3-.167.688-.067.855.233.178.299.067.687-.233.854l-96.435,55.648c-.1.056-.2.078-.311.078Z" fill="#f5f5f5"/>
<path d="M159.002,224.058c-.222,0-.422-.111-.544-.31-.177-.3-.066-.688.233-.854l96.435-55.649c.3-.166.688-.066.855.233.178.3.067.688-.233.854l-96.435,55.649c-.1.055-.2.077-.311.077Z" fill="#f5f5f5"/>
<path d="M159.002,229.928c-.222,0-.422-.111-.544-.311-.177-.3-.066-.688.233-.854l96.435-55.649c.3-.166.688-.066.855.233.178.3.067.688-.233.855L159.313,229.85c-.1.055-.2.078-.311.078Z" fill="#f5f5f5"/>
<path d="M159.002,235.796c-.222,0-.422-.111-.544-.31-.177-.3-.066-.688.233-.855l96.435-55.648c.3-.166.688-.067.855.233.178.3.067.688-.233.854l-96.435,55.649c-.1.044-.2.077-.311.077Z" fill="#f5f5f5"/>
<path d="M159.002,241.665c-.222,0-.422-.111-.544-.311-.177-.299-.066-.688.233-.854l96.435-55.648c.3-.167.688-.067.855.233.178.299.067.687-.233.854l-96.435,55.648c-.1.045-.2.078-.311.078Z" fill="#f5f5f5"/>
<path d="M159.002,247.523c-.222,0-.422-.111-.544-.311-.177-.299-.066-.677.233-.854l45.754-26.404c.299-.178.688-.067.854.233.178.299.067.676-.233.854l-45.753,26.404c-.1.056-.2.078-.311.078Z" fill="#f5f5f5"/>
<path d="m81.471 345.41 55.232-31.918c1.277-0.732 2.309-2.529 2.309-4.005v-29.71c0-1.475-1.032-2.074-2.309-1.331l-55.232 31.918c-1.2765 0.732-2.3088 2.529-2.3088 4.005v29.71c0 1.464 1.0323 2.063 2.3088 1.331z" fill="#fafafa" stroke="#f5f5f5" stroke-miterlimit="10" stroke-width=".9621"/>
<path d="M84.6563,312.391l10.7002-6.18c.6438-.366,1.1544-.066,1.1544.666v12.348c0,.732-.5217,1.631-1.1544,1.997l-10.7002,6.179c-.6438.366-1.1543.067-1.1543-.665v-12.348c0-.732.5216-1.631,1.1543-1.997Z" fill="#bae7ff"/>
<path d="M101.318,302.784l32.9-19.027c.255-.144.466-.033.466.266v1.62c0,.3-.211.655-.466.799l-32.9,19.026c-.256.145-.466.034-.466-.266v-1.62c0-.299.21-.654.466-.798Z" fill="#bae7ff"/>
<path d="M101.318,308.941l32.9-19.027c.255-.144.466-.033.466.267v1.619c0,.3-.211.655-.466.799l-32.9,19.027c-.256.144-.466.033-.466-.267v-1.619c0-.289.21-.644.466-.799Z" fill="#bae7ff"/>
<path d="M101.318,315.109l32.9-19.026c.255-.144.466-.034.466.266v1.62c0,.299-.211.654-.466.799l-32.9,19.026c-.256.144-.466.033-.466-.266v-1.62c0-.288.21-.655.466-.799Z" fill="#bae7ff"/>
<path d="M83.9681,331.251l50.2489-29c.255-.144.466-.022.466.266v1.62c0,.3-.211.655-.466.799l-50.2489,29c-.2553.144-.4661.022-.4661-.266v-1.62c0-.299.2108-.654.4661-.799Z" fill="#bae7ff"/>
<path d="M83.9681,337.42l50.2489-29c.255-.145.466-.023.466.266v1.62c0,.299-.211.654-.466.798L83.9681,340.105c-.2553.144-.4661.022-.4661-.267v-1.619c0-.3.2108-.655.4661-.799Z" fill="#bae7ff"/>
<path d="M77.0523,308.23c-.1332,0-.2775-.066-.3441-.199-.111-.189-.0444-.433.1443-.544l1.1543-.666c.1887-.111.4329-.044.5439.145.111.188.0444.432-.1443.543l-1.1543.666c-.0555.044-.1332.055-.1998.055Z" fill="#bae7ff"/>
<path d="M80.648,306.167c-.1332,0-.2775-.067-.3441-.2-.111-.188-.0444-.432.1443-.543l2.4308-1.409c.1887-.111.4329-.045.5439.144s.0444.433-.1443.544l-2.4308,1.409c-.0666.033-.1332.055-.1998.055Z" fill="#bae7ff"/>
<path d="M85.5112,303.36c-.1332,0-.2775-.066-.3441-.199-.111-.189-.0444-.433.1443-.544l2.4309-1.409c.1887-.111.4329-.044.5439.144.111.189.0444.433-.1443.544l-2.4309,1.409c-.0666.033-.1332.055-.1998.055Z" fill="#bae7ff"/>
<path d="M90.3726,300.543c-.1332,0-.2775-.067-.3441-.2-.111-.189-.0444-.433.1443-.544l2.4308-1.409c.1887-.111.4329-.044.5439.144.111.189.0444.433-.1443.544l-2.4308,1.409c-.0555.044-.1221.056-.1998.056Z" fill="#bae7ff"/>
<path d="M95.2456,297.735c-.1332,0-.2775-.066-.3441-.199-.111-.189-.0444-.433.1443-.544l2.4309-1.409c.1887-.111.4329-.044.5439.144.111.189.0444.433-.1443.544l-2.4309,1.409c-.0666.044-.1332.055-.1998.055Z" fill="#bae7ff"/>
<path d="M100.107,294.929c-.1333,0-.2776-.067-.3442-.2-.111-.189-.0444-.433.1443-.544l2.4309-1.409c.189-.11.433-.044.544.145.111.188.044.432-.144.543l-2.431,1.409c-.056.045-.133.056-.2.056Z" fill="#bae7ff"/>
<path d="M105.158,292.022c-.133,0-.278-.067-.344-.2-.111-.188-.045-.432.144-.543l2.431-1.409c.188-.111.433-.045.544.144s.044.433-.145.544l-2.43,1.409c-.067.033-.134.055-.2.055Z" fill="#bae7ff"/>
<path d="M110.197,289.105c-.133,0-.278-.067-.344-.2-.111-.189-.045-.433.144-.544l2.431-1.409c.189-.111.433-.044.544.144.111.189.044.433-.145.544l-2.43,1.409c-.056.044-.134.056-.2.056Z" fill="#bae7ff"/>
<path d="M115.248,286.187c-.134,0-.278-.067-.345-.2-.111-.189-.044-.433.145-.544l2.431-1.409c.188-.111.433-.044.544.145.111.188.044.432-.145.543l-2.431,1.409c-.066.044-.133.056-.199.056Z" fill="#bae7ff"/>
<path d="M120.287,283.28c-.134,0-.278-.067-.344-.2-.111-.188-.045-.433.144-.543l2.431-1.409c.188-.111.433-.045.544.144.111.188.044.432-.145.543l-2.431,1.409c-.055.034-.122.056-.199.056Z" fill="#bae7ff"/>
<path d="M125.337,280.362c-.133,0-.277-.066-.344-.199-.111-.189-.044-.433.145-.544l2.43-1.409c.189-.111.433-.044.544.144.111.189.045.433-.144.544l-2.431,1.409c-.066.044-.133.055-.2.055Z" fill="#bae7ff"/>
<path d="M130.386,277.456c-.133,0-.277-.067-.344-.2-.111-.189-.044-.433.144-.544l2.431-1.409c.189-.111.433-.044.544.145.111.188.045.432-.144.543l-2.431,1.409c-.067.033-.133.056-.2.056Z" fill="#bae7ff"/>
<path d="M135.427,274.538c-.133,0-.277-.067-.344-.2-.111-.189-.044-.433.144-.544l2.431-1.409c.189-.111.433-.044.544.145.111.188.045.432-.144.543l-2.431,1.409c-.067.045-.133.056-.2.056Z" fill="#bae7ff"/>
<path d="M140.476,271.62c-.133,0-.277-.066-.344-.2-.111-.188-.044-.432.144-.543l2.431-1.409c.189-.111.433-.044.544.144.111.189.044.433-.144.544l-2.431,1.409c-.067.044-.133.055-.2.055Z" fill="#bae7ff"/>
<path d="M145.517,268.713c-.133,0-.277-.066-.344-.199-.111-.189-.044-.433.144-.544l2.431-1.409c.189-.111.433-.044.544.144.111.189.044.433-.144.544l-2.431,1.409c-.056.033-.133.055-.2.055Z" fill="#bae7ff"/>
<path d="M150.566,265.795c-.133,0-.278-.066-.344-.199-.111-.189-.045-.433.144-.544l2.431-1.409c.189-.111.433-.044.544.144.111.189.044.433-.144.544l-2.431,1.409c-.067.044-.133.055-.2.055Z" fill="#bae7ff"/>
<path d="M155.605,262.889c-.133,0-.278-.066-.344-.199-.111-.189-.045-.433.144-.544l2.431-1.409c.189-.111.433-.044.544.144.111.189.044.433-.144.544l-2.431,1.409c-.056.033-.133.055-.2.055Z" fill="#bae7ff"/>
<path d="M160.656,259.971c-.133,0-.278-.066-.344-.199-.111-.189-.045-.433.144-.544l2.431-1.409c.189-.111.433-.044.544.144.111.189.044.433-.145.544l-2.43,1.409c-.067.044-.134.055-.2.055Z" fill="#bae7ff"/>
<path d="M165.695,257.053c-.133,0-.278-.066-.344-.199-.111-.189-.045-.433.144-.544l2.431-1.409c.189-.111.433-.044.544.144.111.189.044.433-.145.544l-2.43,1.409c-.056.044-.122.055-.2.055Z" fill="#bae7ff"/>
<path d="M170.746,254.147c-.134,0-.278-.067-.344-.2-.111-.189-.045-.433.144-.544l2.431-1.409c.188-.111.433-.044.544.144.111.189.044.433-.145.544l-2.431,1.409c-.066.033-.133.056-.199.056Z" fill="#bae7ff"/>
<path d="M175.796,251.229c-.133,0-.277-.067-.344-.2-.111-.188-.044-.432.145-.543l2.43-1.409c.189-.111.433-.045.544.144s.045.433-.144.544l-2.431,1.409c-.066.044-.133.055-.2.055Z" fill="#bae7ff"/>
<path d="M180.835,248.322c-.133,0-.277-.066-.344-.199-.111-.189-.044-.433.145-.544l2.431-1.409c.188-.111.432-.044.543.144.111.189.045.433-.144.544l-2.431,1.409c-.055.033-.133.055-.2.055Z" fill="#bae7ff"/>
<path d="M185.708,245.515c-.133,0-.277-.066-.344-.2-.111-.188-.044-.432.145-.543l2.431-1.409c.188-.111.432-.044.543.144.111.189.045.433-.144.544l-2.431,1.409c-.066.033-.133.055-.2.055Z" fill="#bae7ff"/>
<path d="M190.57,242.697c-.133,0-.278-.066-.344-.199-.111-.189-.045-.433.144-.544l2.431-1.409c.189-.111.433-.044.544.144.111.189.044.433-.145.544l-2.43,1.409c-.067.044-.134.055-.2.055Z" fill="#bae7ff"/>
<path d="M195.431,239.891c-.133,0-.277-.067-.344-.2-.111-.189-.044-.433.144-.544l1.155-.665c.188-.111.433-.045.544.144.111.188.044.432-.145.543l-1.154.666c-.056.044-.122.056-.2.056Z" fill="#bae7ff"/>
<path d="M75.2765,352.364c-.222,0-.3995-.178-.3995-.4v-1.331c0-.222.1775-.4.3995-.4s.3996.178.3996.4v1.331c0,.211-.1776.4-.3996.4Z" fill="#bae7ff"/>
<path d="M75.2765,348.469c-.222,0-.3995-.177-.3995-.399v-2.563c0-.222.1775-.399.3995-.399s.3996.177.3996.399v2.563c0,.222-.1776.399-.3996.399Zm0-5.125c-.222,0-.3995-.178-.3995-.4v-2.563c0-.221.1775-.399.3995-.399s.3996.178.3996.399v2.563c0,.222-.1776.4-.3996.4Zm0-5.115c-.222,0-.3995-.177-.3995-.399v-2.563c0-.222.1775-.399.3995-.399s.3996.177.3996.399v2.563c0,.222-.1776.399-.3996.399Zm0-5.114c-.222,0-.3995-.178-.3995-.4v-2.562c0-.222.1775-.4.3995-.4s.3996.178.3996.4v2.562c0,.222-.1776.4-.3996.4Zm0-5.115c-.222,0-.3995-.177-.3995-.399v-2.563c0-.222.1775-.399.3995-.399s.3996.177.3996.399v2.563c0,.222-.1776.399-.3996.399Zm0-5.114c-.222,0-.3995-.178-.3995-.399v-2.563c0-.222.1775-.4.3995-.4s.3996.178.3996.4v2.563c0,.221-.1776.399-.3996.399Zm0-5.126c-.222,0-.3995-.177-.3995-.399v-2.563c0-.222.1775-.399.3995-.399s.3996.177.3996.399v2.563c0,.222-.1776.399-.3996.399Z" fill="#bae7ff"/>
<path d="M75.2765,312.646c-.222,0-.3995-.177-.3995-.399v-1.332c0-.221.1775-.399.3995-.399s.3996.178.3996.399v1.332c0,.222-.1776.399-.3996.399Z" fill="#bae7ff"/>
<path d="M195.464,285.022c-.133,0-.277-.067-.344-.2-.111-.188-.044-.432.145-.543l1.154-.666c.189-.111.433-.044.544.144.111.189.044.433-.144.544l-1.155.665c-.055.045-.122.056-.2.056Z" fill="#bae7ff"/>
<path d="M80.648,351.31c-.1332,0-.2775-.067-.3441-.2-.111-.189-.0444-.433.1443-.544l2.4308-1.409c.1887-.111.4329-.044.5439.145.111.188.0444.432-.1443.543l-2.4308,1.409c-.0666.045-.1332.056-.1998.056Z" fill="#bae7ff"/>
<path d="M85.521,348.502c-.1332,0-.2775-.066-.3441-.199-.111-.189-.0444-.433.1443-.544l2.4309-1.409c.1887-.111.4328-.044.5438.144.111.189.0444.433-.1442.544l-2.4309,1.409c-.0666.033-.1332.055-.1998.055Z" fill="#bae7ff"/>
<path d="M90.3823,345.685c-.1332,0-.2775-.067-.3441-.2-.111-.189-.0444-.433.1443-.544l2.4309-1.409c.1887-.111.4329-.044.5439.145.111.188.0444.432-.1443.543l-2.4309,1.409c-.0555.045-.1221.056-.1998.056Z" fill="#bae7ff"/>
<path d="M95.2554,342.878c-.1332,0-.2775-.067-.3441-.2-.111-.188-.0444-.432.1443-.543l2.4308-1.409c.1887-.111.4329-.045.5439.144s.0444.433-.1443.544l-2.4308,1.408c-.0555.045-.1332.056-.1998.056Z" fill="#bae7ff"/>
<path d="M100.128,340.071c-.1328,0-.2771-.066-.3437-.199-.111-.189-.0444-.433.1443-.544l2.4304-1.409c.189-.111.433-.044.544.144.111.189.045.433-.144.544l-2.431,1.409c-.066.033-.133.055-.2.055Z" fill="#bae7ff"/>
<path d="M105.167,337.153c-.133,0-.277-.066-.344-.199-.111-.189-.044-.433.145-.544l2.431-1.409c.188-.111.432-.044.543.144.111.189.045.433-.144.544l-2.431,1.409c-.055.044-.122.055-.2.055Z" fill="#bae7ff"/>
<path d="M110.218,334.247c-.133,0-.277-.066-.344-.2-.111-.188-.044-.432.144-.543l2.431-1.409c.189-.111.433-.045.544.144s.045.433-.144.544l-2.431,1.409c-.067.033-.133.055-.2.055Z" fill="#bae7ff"/>
<path d="M115.269,331.329c-.133,0-.277-.066-.344-.2-.111-.188-.044-.432.144-.543l2.431-1.409c.189-.111.433-.044.544.144.111.189.044.433-.144.544l-2.431,1.409c-.067.033-.133.055-.2.055Z" fill="#bae7ff"/>
<path d="M120.308,328.411c-.133,0-.277-.066-.344-.2-.111-.188-.044-.432.144-.543l2.431-1.409c.189-.111.433-.044.544.144.111.189.044.433-.144.544l-2.431,1.409c-.056.044-.133.055-.2.055Z" fill="#bae7ff"/>
<path d="M125.359,325.504c-.133,0-.278-.066-.344-.199-.111-.189-.045-.433.144-.544l2.431-1.409c.189-.111.433-.044.544.144.111.189.044.433-.144.544l-2.431,1.409c-.067.033-.134.055-.2.055Z" fill="#bae7ff"/>
<path d="M130.398,322.587c-.133,0-.278-.067-.344-.2-.111-.188-.045-.432.144-.543l2.431-1.409c.189-.111.433-.045.544.144s.044.433-.144.544l-2.431,1.408c-.056.045-.122.056-.2.056Z" fill="#bae7ff"/>
<path d="M135.449,319.68c-.133,0-.278-.066-.344-.199-.111-.189-.045-.433.144-.544l2.431-1.409c.188-.111.433-.044.544.144.111.189.044.433-.145.544l-2.43,1.409c-.067.033-.134.055-.2.055Z" fill="#bae7ff"/>
<path d="M140.498,316.762c-.134,0-.278-.066-.345-.199-.111-.189-.044-.433.145-.544l2.431-1.409c.188-.111.433-.044.544.144.111.189.044.433-.145.544l-2.431,1.409c-.066.033-.133.055-.199.055Z" fill="#bae7ff"/>
<path d="M145.539,313.845c-.134,0-.278-.067-.345-.2-.111-.189-.044-.433.145-.544l2.431-1.408c.188-.111.433-.045.544.144.111.188.044.432-.145.543l-2.431,1.409c-.055.045-.133.056-.199.056Z" fill="#bae7ff"/>
<path d="M150.587,310.938c-.133,0-.277-.067-.344-.2-.111-.188-.044-.432.145-.543l2.43-1.409c.189-.111.433-.045.544.144s.045.433-.144.544l-2.431,1.409c-.066.033-.133.055-.2.055Z" fill="#bae7ff"/>
<path d="M155.626,308.02c-.133,0-.277-.067-.344-.2-.111-.188-.044-.432.145-.543l2.431-1.409c.188-.111.432-.045.543.144s.045.433-.144.544l-2.431,1.409c-.055.044-.133.055-.2.055Z" fill="#bae7ff"/>
<path d="M160.677,305.103c-.133,0-.277-.067-.344-.2-.111-.189-.044-.433.144-.544l2.431-1.409c.189-.111.433-.044.544.145.111.188.045.432-.144.543l-2.431,1.409c-.067.044-.133.056-.2.056Z" fill="#bae7ff"/>
<path d="M165.716,302.196c-.133,0-.277-.067-.344-.2-.111-.188-.044-.433.145-.543l2.43-1.409c.189-.111.433-.045.544.144.111.188.045.432-.144.543l-2.431,1.409c-.055.034-.122.056-.2.056Z" fill="#bae7ff"/>
<path d="M170.767,299.278c-.133,0-.277-.067-.344-.2-.111-.188-.044-.432.144-.543l2.431-1.409c.189-.111.433-.045.544.144.111.188.044.432-.144.543l-2.431,1.409c-.067.045-.133.056-.2.056Z" fill="#bae7ff"/>
<path d="M175.818,296.372c-.133,0-.278-.067-.344-.2-.111-.189-.045-.433.144-.544l2.431-1.409c.189-.111.433-.044.544.145.111.188.044.432-.144.543l-2.431,1.409c-.067.033-.134.056-.2.056Z" fill="#bae7ff"/>
<path d="M180.857,293.454c-.133,0-.278-.067-.344-.2-.111-.189-.045-.433.144-.544l2.431-1.409c.189-.111.433-.044.544.145.111.188.044.432-.144.543l-2.431,1.409c-.056.033-.133.056-.2.056Z" fill="#bae7ff"/>
<path d="M185.73,290.647c-.133,0-.278-.067-.344-.2-.111-.189-.045-.433.144-.544l2.431-1.409c.189-.111.433-.044.544.144.111.189.044.433-.144.544l-2.431,1.409c-.067.033-.133.056-.2.056Z" fill="#bae7ff"/>
<path d="M190.603,287.829c-.133,0-.277-.067-.344-.2-.111-.189-.044-.433.144-.544l2.431-1.409c.189-.111.433-.044.544.145.111.188.044.432-.144.543l-2.431,1.409c-.067.045-.133.056-.2.056Z" fill="#bae7ff"/>
<path d="M77.0523,353.384c-.1332,0-.2775-.066-.3441-.2-.111-.188-.0444-.432.1443-.543l1.1543-.666c.1887-.111.4329-.044.5439.144.111.189.0444.433-.1443.544l-1.1543.666c-.0555.033-.1332.055-.1998.055Z" fill="#bae7ff"/>
<path d="M198.407,241.566c-.222,0-.399-.178-.399-.4v-1.331c0-.222.177-.399.399-.399s.4.177.4.399v1.331c0,.222-.178.4-.4.4Z" fill="#bae7ff"/>
<path d="M198.407,277.377c-.222,0-.399-.177-.399-.399v-2.563c0-.222.177-.399.399-.399s.4.177.4.399v2.563c0,.222-.178.399-.4.399Zm0-5.114c-.222,0-.399-.177-.399-.399v-2.563c0-.222.177-.399.399-.399s.4.177.4.399v2.563c0,.222-.178.399-.4.399Zm0-5.114c-.222,0-.399-.178-.399-.4v-2.563c0-.221.177-.399.399-.399s.4.178.4.399v2.563c0,.222-.178.4-.4.4Zm0-5.115c-.222,0-.399-.177-.399-.399v-2.563c0-.222.177-.399.399-.399s.4.177.4.399v2.563c0,.222-.178.399-.4.399Zm0-5.114c-.222,0-.399-.178-.399-.4v-2.562c0-.222.177-.4.399-.4s.4.178.4.4v2.562c0,.222-.178.4-.4.4Zm0-5.115c-.222,0-.399-.177-.399-.399v-2.563c0-.222.177-.399.399-.399s.4.177.4.399v2.563c0,.211-.178.399-.4.399Zm0-5.125c-.222,0-.399-.178-.399-.399v-2.563c0-.222.177-.4.399-.4s.4.178.4.4v2.563c0,.221-.178.399-.4.399Z" fill="#bae7ff"/>
<path d="M198.407,281.272c-.222,0-.399-.178-.399-.4v-1.331c0-.222.177-.399.399-.399s.4.177.4.399v1.331c0,.222-.178.4-.4.4Z" fill="#bae7ff"/>
<path d="M196.632,241.255c-.067,0-.133-.022-.2-.055-.122-.067-.2-.2-.2-.344v-4.105c0-.144.078-.277.2-.344l3.552-2.052c.122-.067.278-.067.4,0c.122.066.2.199.2.344v4.104c0,.145-.078.278-.2.344l-3.552,2.053c-.067.044-.133.055-.2.055Zm.4-4.271v3.184l2.752-1.587v-3.184l-2.752,1.587Z" fill="#bae7ff"/>
<path d="M196.632,286.408c-.067,0-.133-.022-.2-.055-.122-.067-.2-.2-.2-.344v-4.105c0-.144.078-.277.2-.344l3.552-2.052c.122-.067.278-.067.4,0c.122.066.2.2.2.344v4.105c0,.144-.078.277-.2.344l-3.552,2.052c-.067.033-.133.055-.2.055Zm.4-4.271v3.184l2.752-1.586v-3.184l-2.752,1.586Z" fill="#bae7ff"/>
<path d="M73.5012,312.335c-.0666,0-.1332-.022-.1998-.055-.1221-.067-.1998-.2-.1998-.344v-4.105c0-.144.0777-.277.1998-.344l3.5519-2.052c.1221-.067.2775-.067.3996,0c.1221.066.1998.199.1998.344v4.104c0,.145-.0777.278-.1998.344L73.701,312.28c-.0666.044-.1332.055-.1998.055Zm.3995-4.271v3.184l2.7528-1.586v-3.184l-2.7528,1.586Z" fill="#bae7ff"/>
<path d="M73.5012,357.489c-.0666,0-.1332-.023-.1998-.056-.1221-.066-.1998-.2-.1998-.344v-4.105c0-.144.0777-.277.1998-.344l3.5519-2.052c.1221-.067.2775-.067.3996,0s.1998.2.1998.344v4.105c0,.144-.0777.277-.1998.344l-3.5519,2.052c-.0666.033-.1332.056-.1998.056Zm.3995-4.272v3.184l2.7528-1.586v-3.184l-2.7528,1.586Z" fill="#bae7ff"/>
<path d="M200.193,261.846c0,1.32-.799,2.851-1.787,3.417s-1.787-.034-1.787-1.354.799-2.851,1.787-3.417s1.787.034,1.787,1.354Z" fill="#bae7ff"/>
<path d="M141.043,270.732c0,1.32-.799,2.851-1.787,3.417s-1.787-.033-1.787-1.353.799-2.851,1.787-3.417c.988-.577,1.787.033,1.787,1.353Z" fill="#bae7ff"/>
<path d="M141.043,315.874c0,1.321-.799,2.852-1.787,3.417-.988.566-1.787-.033-1.787-1.353s.799-2.851,1.787-3.417s1.787.044,1.787,1.353Z" fill="#bae7ff"/>
<path d="M77.0644,332.993c0,1.32-.7992,2.851-1.7871,3.417s-1.7871-.033-1.7871-1.353c0-1.321.7992-2.852,1.7871-3.417.9879-.577,1.7871.033,1.7871,1.353Z" fill="#bae7ff"/>
<path d="M143.675,277.522c-.111,0-.222-.055-.289-.166-.089-.156-.033-.355.122-.444l50.637-29.222c.156-.089.356-.033.456.122.088.155.033.355-.123.444l-50.637,29.222c-.055.033-.111.044-.166.044Z" fill="#8c8c8c"/>
<path d="M143.675,280.606c-.111,0-.222-.055-.289-.166-.089-.156-.033-.355.122-.444l50.637-29.222c.156-.089.356-.045.456.122.088.155.033.355-.123.444l-50.637,29.222c-.055.022-.111.044-.166.044Z" fill="#8c8c8c"/>
<path d="M143.675,283.679c-.111,0-.222-.055-.289-.166-.089-.155-.033-.355.122-.444l50.637-29.222c.156-.089.356-.044.456.122.088.155.033.355-.123.444l-50.637,29.222c-.055.033-.111.044-.166.044Z" fill="#8c8c8c"/>
<path d="M143.675,286.764c-.111,0-.222-.056-.289-.167-.089-.155-.033-.355.122-.443l50.637-29.222c.156-.089.356-.034.456.122.088.155.033.355-.123.443l-50.637,29.222c-.055.034-.111.045-.166.045Z" fill="#8c8c8c"/>
<path d="M143.675,289.848c-.111,0-.222-.056-.289-.167-.089-.155-.033-.355.122-.443l50.637-29.223c.156-.088.356-.044.456.123.088.155.033.355-.123.443l-50.637,29.222c-.055.022-.111.045-.166.045Z" fill="#8c8c8c"/>
<path d="M143.675,292.921c-.111,0-.222-.056-.289-.167-.089-.155-.033-.355.122-.444l24.02-13.867c.156-.089.355-.045.444.122.089.155.033.355-.122.444l-24.02,13.867c-.044.034-.1.045-.155.045Z" fill="#8c8c8c"/>
<path d="M143.675,300.021c-.111,0-.222-.055-.289-.166-.089-.156-.033-.355.122-.444l50.637-29.222c.156-.089.356-.045.456.122.088.155.033.355-.123.444l-50.637,29.222c-.055.033-.111.044-.166.044Z" fill="#8c8c8c"/>
<path d="M143.675,303.094c-.111,0-.222-.055-.289-.166-.089-.155-.033-.355.122-.444l50.637-29.222c.156-.089.356-.044.456.122.088.155.033.355-.123.444L143.841,303.05c-.055.033-.111.044-.166.044Z" fill="#8c8c8c"/>
<path d="M143.675,306.178c-.111,0-.222-.055-.289-.166-.089-.155-.033-.355.122-.444l50.637-29.222c.156-.089.356-.033.456.122.088.155.033.355-.123.444l-50.637,29.222c-.055.033-.111.044-.166.044Z" fill="#8c8c8c"/>
<path d="M143.675,309.262c-.111,0-.222-.055-.289-.166-.089-.155-.033-.355.122-.444l24.02-13.867c.156-.089.355-.034.455.122.089.155.034.355-.122.454l-24.02,13.868c-.055.022-.111.033-.166.033Z" fill="#8c8c8c"/>
<path d="M220.151,272.684c-.044,0-.089-.011-.133-.033-.078-.044-.133-.133-.133-.233v-46.607c0-.099.055-.177.133-.232l37.495-21.634c.078-.044.189-.044.266,0c.078.044.134.133.134.233v46.606c0,.1-.056.189-.134.233l-37.495,21.634c-.044.022-.088.033-.133.033Zm.267-46.717v45.996l36.962-21.334v-45.996l-36.962,21.334Z" fill="#f5f5f5"/>
<path d="M223.038,251.039c-.045,0-.089-.011-.133-.033-.078-.044-.134-.133-.134-.233v-23.298c0-.099.056-.177.134-.233l31.723-18.305c.078-.044.189-.044.266,0c.078.044.133.133.133.233v23.298c0,.1-.055.177-.133.233l-31.723,18.305c-.044.022-.089.033-.133.033Zm.266-23.408v22.687l31.191-18.006v-22.687l-31.191,18.006Z" fill="#bae7ff"/>
<path d="M223.336,253.924l8.036-4.637c.167-.1.311-.023.311.177v.954c0,.2-.133.433-.311.533l-8.036,4.637c-.166.1-.311.022-.311-.177v-.955c.011-.188.145-.432.311-.532Z" fill="#bae7ff"/>
<path d="M223.336,257.252l30.147-17.351c.167-.1.311-.022.311.177v.954c0,.2-.133.433-.311.533l-30.147,17.351c-.166.1-.311.022-.311-.177v-.954c.011-.189.145-.433.311-.533Z" fill="#f5f5f5"/>
<path d="M223.336,263.92l30.147-17.351c.167-.1.311-.022.311.177v.954c0,.2-.133.433-.311.533l-30.147,17.351c-.166.1-.311.022-.311-.177v-.954c.011-.2.145-.444.311-.533Z" fill="#f5f5f5"/>
<path d="M223.336,260.581l30.147-17.351c.167-.1.311-.022.311.177v.955c0,.199-.133.432-.311.532l-30.147,17.351c-.166.1-.311.023-.311-.177v-.954c.011-.189.145-.433.311-.533Z" fill="#f5f5f5"/>
<path d="M254.76,232.734c-.011,0-.023,0-.045,0l-11.033-1.742c-.144-.022-.244-.155-.222-.299s.144-.244.3-.222l11.033,1.742c.144.022.244.155.222.299-.011.122-.122.222-.255.222Z" fill="#bae7ff"/>
<path d="M234.081,229.484c-.011,0-.022,0-.044,0l-11.044-1.742c-.145-.022-.245-.155-.222-.299.022-.144.155-.244.299-.222l11.045,1.742c.144.022.244.155.222.299-.011.122-.134.222-.256.222Z" fill="#bae7ff"/>
<path d="M223.037,251.04c-.055,0-.111-.022-.166-.056-.122-.088-.144-.255-.044-.377l11.033-14.478c.089-.111.255-.144.377-.044.122.089.144.255.045.377L223.248,250.94c-.055.067-.133.1-.211.1Z" fill="#bae7ff"/>
<path d="M243.705,223.925c-.055,0-.111-.022-.166-.055-.122-.089-.144-.255-.044-.377l11.055-14.5c.089-.111.255-.145.377-.045.122.089.145.255.045.377l-11.056,14.5c-.055.067-.133.1-.211.1Z" fill="#bae7ff"/>
<path d="M238.898,228.307c-.644.366-1.166,1.476-1.166,2.452s.522,1.487,1.166,1.121s1.165-1.476,1.165-2.452-.532-1.498-1.165-1.121Z" fill="#bae7ff"/>
<path d="M241.385,225.29l-.888.51v-.466c0-.3-.155-.444-.344-.333l-2.52,1.453c-.188.111-.344.444-.344.733v.466l-.888.51c-.399.233-.721.91-.721,1.52v4.515c0,.61.322.921.721.688l4.984-2.873c.4-.233.721-.91.721-1.52v-4.516c0-.61-.321-.92-.721-.687Zm-2.486,7.477c-.955.555-1.743-.2-1.743-1.675c0-1.476.777-3.129,1.743-3.683.954-.555,1.742.199,1.742,1.675-.011,1.475-.788,3.128-1.742,3.683Z" fill="#bae7ff"/>
<path d="M266.294,246.047c-.045,0-.089-.011-.133-.033-.078-.045-.134-.133-.134-.233v-46.607c0-.1.056-.177.134-.233l37.495-21.633c.077-.045.188-.045.266,0c.078.044.133.133.133.233v46.606c0,.1-.055.189-.133.233l-37.495,21.634c-.033.022-.078.033-.133.033Zm.266-46.717v45.996l36.962-21.334v-45.996L266.56,199.33Z" fill="#f5f5f5"/>
<path d="M269.18,224.413c-.044,0-.088-.011-.133-.033-.077-.044-.133-.133-.133-.233v-23.298c0-.099.056-.177.133-.233l31.723-18.305c.078-.044.189-.044.267,0s.133.133.133.233v23.298c0,.1-.055.188-.133.233L269.314,224.38c-.034.022-.089.033-.134.033Zm.267-23.419v22.687l31.19-18.006v-22.687l-31.19,18.006Z" fill="#bae7ff"/>
<path d="M269.49,227.298l8.037-4.637c.166-.1.311-.023.311.177v.954c0,.2-.134.433-.311.533l-8.037,4.637c-.166.1-.31.022-.31-.177v-.954c0-.2.144-.433.31-.533Z" fill="#bae7ff"/>
<path d="M269.49,230.626l30.148-17.351c.166-.1.31-.022.31.177v.955c0,.199-.133.432-.31.532L269.49,232.29c-.166.1-.31.022-.31-.177v-.954c0-.2.144-.433.31-.533Z" fill="#f5f5f5"/>
<path d="M269.49,237.283l30.148-17.351c.166-.1.31-.023.31.177v.954c0,.2-.133.433-.31.533L269.49,238.947c-.166.1-.31.022-.31-.177v-.955c0-.199.144-.432.31-.532Z" fill="#f5f5f5"/>
<path d="M269.49,233.954l30.148-17.351c.166-.1.31-.022.31.178v.954c0,.199-.133.432-.31.532L269.49,235.618c-.166.1-.31.023-.31-.177v-.954c0-.2.144-.433.31-.533Z" fill="#f5f5f5"/>
<path d="M285.042,198.342c-2.387,1.376-4.329,4.737-4.329,7.489c0,2.762,1.942,3.871,4.329,2.496c2.386-1.376,4.329-4.737,4.329-7.489c0-2.751-1.932-3.872-4.329-2.496Zm2.264,4.049l-3.23,3.861c-.311.377-.566.289-.566-.211v-3.616c0-.488.4-.877.888-.855l2.597.1c.489.023.633.344.311.721Z" fill="#bae7ff"/>
<path d="M255.649,100.803c-.422-.189-.988-.134-1.599.221L80.0167,201.271c-1.3208.766-2.3975,2.63-2.3975,4.161v10.062c0,.732.2442,1.265.6549,1.531-.4107-.266-4.0404-2.319-4.4844-2.585-.4217-.255-.6881-.788-.6881-1.542v-10.062c0-1.531,1.0766-3.395,2.4086-4.161L249.533,98.4173c.677-.3883,1.287-.4105,1.72-.1553.389.233,3.541,2.019,4.396,2.541Z" fill="#096dd9"/>
<path d="M80.0161,201.271L254.05,101.025c1.332-.766,2.397-.145,2.397,1.386v10.063c0,1.531-1.076,3.395-2.397,4.16L80.0161,216.881c-1.332.765-2.4087.144-2.4087-1.387v-10.062c0-1.531,1.0767-3.395,2.4087-4.161Z" fill="#91d5ff"/>
<path d="M78.3185,203.069l-4.5066-2.608c-.4328.755-.7103,1.609-.7103,2.375v10.062c0,.754.2664,1.287.6881,1.542.444.266,4.0737,2.319,4.4844,2.585-.4107-.266-.6549-.799-.6549-1.531v-10.062c0-.766.2664-1.609.6993-2.363Z" opacity=".15"/>
<path d="M255.649,100.803c-.854-.522-4.007-2.308-4.395-2.541-.433-.2552-1.044-.233-1.721.1553L75.5108,198.675c-.666.377-1.2654,1.043-1.6983,1.786l4.5065,2.608c.4329-.755,1.0323-1.409,1.6983-1.798L254.051,101.024c.61-.355,1.176-.41,1.598-.221Z" fill="#fff" opacity=".4"/>
<path d="M247.434,112.651c0,1.442-1.076,3.217-2.408,3.994l-58.319,33.649c-1.331.765-2.408.221-2.408-1.221s1.077-3.217,2.397-3.994l58.319-33.648c1.343-.766,2.419-.222,2.419,1.22Z" fill="#fafafa"/>
<path d="M267.649,97.5518l93.183-53.7845c1.198-.6878,2.164-.1331,2.164,1.2537v84.094c0,1.375-.966,3.062-2.164,3.75l-93.183,53.784c-1.199.688-2.165.133-2.165-1.254v-84.093c0-1.3871.966-3.0623,2.165-3.7502Z" fill="#f0f0f0"/>
<path d="M495.62,287.328c11.977,6.745,12.099,17.884.267,24.884-11.833,7.001-31.124,7.212-43.112.466-11.977-6.745-12.099-17.883-.266-24.884c11.832-7,31.135-7.2,43.111-.466Z" fill="#fafafa"/>
<path d="m484.92 129.11v174.57l8.591-6.823 1.343-171.32-9.934 3.572z" fill="#d9d9d9"/>
<path d="m474.17 123.4c3.208-2.974 12.776 2.618 12.776 5.791l-2.03 174.45-17.816-7.357 7.07-172.88z" fill="#f0f0f0"/>
<path d="M476.207,93.1135c3.208-2.6737,6.393-3.3837,8.935-2.3742v-.0111l15.784,7.533-.366.9984c1.032,1.3094,1.798,3.0844,2.186,5.3254c1.399,8.065-2.564,18.86-8.857,24.096-1.721,1.432-3.441,2.286-5.051,2.63l-.377,1.043-15.74-7.522c-2.641-.843-4.65-3.462-5.372-7.633-1.398-8.054,2.564-18.838,8.858-24.0855Z" fill="#1890ff"/>
<path d="M476.207,93.1135c3.208-2.6737,6.393-3.3837,8.935-2.3742v-.0111l15.784,7.533-.366.9984c1.032,1.3094,1.798,3.0844,2.186,5.3254c1.399,8.065-2.564,18.86-8.857,24.096-1.721,1.432-3.441,2.286-5.051,2.63l-.377,1.043-15.74-7.522c-2.641-.843-4.65-3.462-5.372-7.633-1.398-8.054,2.564-18.838,8.858-24.0855Z" opacity=".15"/>
<g transform="translate(1e-6 1e-6)">
<path d="m417.9 109.38-20.391 38.331-6.504-4.139 20.324-37.986 6.571 3.794z" fill="#f0f0f0"/>
<path d="m378.54 158.89 18.97-11.183-6.505-4.138-19.047 11.538 6.582 3.783z" fill="#f0f0f0"/>
<path d="m421.14 111.11-3.241-1.731-20.39 38.331-18.97 11.183v3.639l22.022-13.114 20.579-38.308z" fill="#d9d9d9"/>
<path d="M425.28,104.818l51.836,11.349c2.897-.466,4.873-3.195,4.406-6.102-.466-2.895-3.196-4.87-6.104-4.404-.056.011-.134.022-.189.033l-51.381-8.8307c-2.187.4327-3.608,2.5627-3.175,4.7487.422,2.141,2.476,3.55,4.607,3.206Z" fill="#f0f0f0"/>
<path d="M425.28,104.818l51.836,11.349c2.897-.466,4.873-3.195,4.406-6.102-.466-2.895-3.196-4.87-6.104-4.404-.056.011-.134.022-.189.033l-51.381-8.8307c-2.187.4327-3.608,2.5627-3.175,4.7487.422,2.141,2.476,3.55,4.607,3.206Z" fill="#f0f0f0" opacity=".7"/>
<path d="M412.326,86.7785c2.287-1.8971,4.551-2.4074,6.36-1.6863v-.0111l11.156,5.7246-.256.71c.733.9319,1.288,2.1967,1.554,3.7942.999,5.7361-1.831,13.4131-6.304,17.1401-1.221,1.021-2.442,1.631-3.597,1.875l-.266.744-11.122-5.725v-.011c-1.876-.599-3.308-2.452-3.83-5.414-.987-5.7357,1.832-13.4128,6.305-17.1405Z" fill="#096dd9"/>
<path d="M412.326,86.7785c2.287-1.8971,4.551-2.4074,6.36-1.6863v-.0111l11.156,5.7246-.256.71c.733.9319,1.288,2.1967,1.554,3.7942.999,5.7361-1.831,13.4131-6.304,17.1401-1.221,1.021-2.442,1.631-3.597,1.875l-.266.744-11.122-5.725v-.011c-1.876-.599-3.308-2.452-3.83-5.414-.987-5.7357,1.832-13.4128,6.305-17.1405Z" opacity=".15"/>
<path d="m423.72 92.592c-4.473 3.7277-7.293 11.405-6.305 17.14 0.999 5.736 5.428 7.367 9.901 3.639 4.473-3.727 7.293-11.405 6.305-17.14-0.988-5.7468-5.428-7.3776-9.901-3.6389z" fill="#1890ff"/>
<path d="M421.639,106.205c.122.687.344,1.253.644,1.675.887,1.298,2.486,1.398,4.095.066c2.132-1.786,3.486-5.447,3.008-8.1982-.31-1.7862-1.298-2.7292-2.541-2.6848-.689,0-1.432.3107-2.187.9541-2.142,1.7862-3.497,5.4469-3.019,8.1879Z" fill="#096dd9"/>
<path d="M421.639,106.205c.122.687.344,1.253.644,1.675.887,1.298,2.486,1.398,4.095.066c2.132-1.786,3.486-5.447,3.008-8.1982-.31-1.7862-1.298-2.7292-2.541-2.6848-.689,0-1.432.3107-2.187.9541-2.142,1.7862-3.497,5.4469-3.019,8.1879Z" opacity=".3"/>
<path d="M421.639,106.205c.122.687.344,1.253.644,1.675.688,0,1.442-.322,2.197-.954c2.131-1.786,3.486-5.448,3.008-8.1878-.122-.6878-.344-1.2536-.643-1.6752-.689,0-1.432.3106-2.187.9541-2.142,1.7861-3.497,5.4469-3.019,8.1879Z" fill="#455a64"/>
<path d="m371.96 158.74 6.582 3.783v-3.627l-6.582-3.784v3.628z" fill="#f0f0f0"/>
<path d="m418.53 94.4-6.582-3.8164-21.689-27.913 5.328-1.0872 22.943 32.816z" fill="#f0f0f0"/>
<path d="M384.245,65.2119c-.378-.1664-.888-.122-1.443.1997L289.619,119.196c-1.188.688-2.165,2.374-2.165,3.75v84.094c0,.654.222,1.142.589,1.375-.367-.244-3.641-2.085-4.041-2.329-.377-.233-.621-.71-.621-1.387v-84.094c0-1.376.966-3.062,2.175-3.75l93.172-53.7843c.611-.355,1.166-.3661,1.554-.1442.355.1997,3.197,1.8083,3.963,2.2854Z" fill="#096dd9" opacity=".7"/>
<path d="M289.62,119.185l93.182-53.7846c1.199-.6878,2.165-.1331,2.165,1.2536v84.094c0,1.375-.966,3.062-2.165,3.75L289.62,208.282c-1.199.688-2.165.133-2.165-1.254v-84.093c0-1.376.966-3.062,2.165-3.75Z" fill="#1890ff"/>
<path d="M288.088,120.805l-4.063-2.341c-.399.677-.632,1.442-.632,2.141v84.094c0,.677.244,1.165.621,1.387.4.244,3.674,2.085,4.04,2.329-.366-.244-.588-.721-.588-1.375v-84.094c-.011-.699.233-1.465.622-2.141Z" opacity=".15"/>
<path d="M384.245,65.2117c-.765-.466-3.607-2.0746-3.962-2.2854-.389-.233-.944-.2108-1.554.1442L285.557,116.855c-.599.344-1.143.932-1.532,1.609l4.063,2.341c.388-.677.932-1.276,1.532-1.62l93.182-53.7847c.555-.3107,1.066-.3661,1.443-.1886Z" fill="#fff" opacity=".5"/>
<path d="M348.448,147.087l7.371,10.351-33.289-30.276-35.075,59.387v20.491c0,1.375.966,1.941,2.165,1.253l93.182-53.784c1.199-.688,2.165-2.374,2.165-3.75v-11.261l-24.819-17.861-11.7,25.45Z" fill="#fafafa" opacity=".95"/>
<path d="m352.46 97.296c4.34-2.5073 7.87-0.4771 7.87 4.5379 0 5.014-3.518 11.116-7.87 13.623-4.34 2.508-7.869 0.477-7.869-4.537 0-5.026 3.518-11.117 7.869-13.624z" fill="#fafafa" opacity=".95"/>
<path d="M383.768,66.1103c.189,0,.2.4881.2.5436v84.0941c0,1.02-.777,2.374-1.665,2.884L289.12,207.417c-.255.144-.411.166-.466.166-.189,0-.2-.488-.2-.544v-84.093c0-1.021.777-2.374,1.665-2.885l93.183-53.7843c.255-.1442.41-.1664.466-.1664Zm0-.9985c-.289,0-.622.0999-.966.2996L289.62,119.196c-1.199.688-2.165,2.374-2.165,3.75v84.093c0,.977.488,1.543,1.199,1.543.288,0,.621-.1.966-.3l93.182-53.785c1.199-.687,2.165-2.374,2.165-3.749v-84.0941c0-.9763-.489-1.5421-1.199-1.5421Z" fill="#096dd9"/>
<path d="m418.53 94.4 2.609-2.8845-24.564-35.046-23.998 13.169v4.7483l22.599-12.137 23.354 32.151z" fill="#d9d9d9"/>
<path d="m372.58 74.386-7.593-4.3822v-4.7483l7.593 4.3822v4.7483z" fill="#d9d9d9"/>
<path d="m364.99 65.256 23.987-13.18 7.603 4.3933-23.997 13.169-7.593-4.3822z" fill="#f0f0f0"/>
</g>
<path d="m492.32 100.76c-6.294 5.248-10.256 16.031-8.858 24.097 1.399 8.065 7.637 10.351 13.919 5.114 6.294-5.247 10.257-16.031 8.858-24.096-1.398-8.0659-7.637-10.351-13.919-5.115z" fill="#1890ff"/>
<path d="M489.405,119.895c.166.965.477,1.764.91,2.363c1.243,1.819,3.496,1.964,5.761.089c2.996-2.508,4.895-7.666,4.229-11.527-.433-2.507-1.821-3.839-3.575-3.772-.965.011-2.009.444-3.074,1.331-3.03,2.518-4.929,7.677-4.251,11.516Z" fill="#096dd9"/>
<path d="M489.405,119.895c.166.965.477,1.764.91,2.363c1.243,1.819,3.496,1.964,5.761.089c2.996-2.508,4.895-7.666,4.229-11.527-.433-2.507-1.821-3.839-3.575-3.772-.965.011-2.009.444-3.074,1.331-3.03,2.518-4.929,7.677-4.251,11.516Z" opacity=".3"/>
<path d="M489.405,119.895c.166.965.477,1.764.91,2.363.965-.011,2.02-.444,3.086-1.342c2.996-2.508,4.895-7.667,4.229-11.505-.167-.965-.478-1.764-.911-2.363-.965.011-2.009.444-3.074,1.331-3.019,2.519-4.917,7.677-4.24,11.516Z" fill="#455a64"/>
<path d="M221.784,239.834l-30.769,83.683-.011.011c-.067.211-.244.411-.544.577-.777.444-2.031.444-2.808,0-.333-.188-.522-.432-.577-.688-.011-.077-.011-.155,0-.233.011-.188.044-.377.111-.576l30.846-84.15c.377-1.031,1.521-1.564,2.553-1.176c1.054.389,1.576,1.52,1.199,2.552Z" fill="#d9d9d9"/>
<path d="m181.77 294.02-2.22 3.843 30.846 17.801 2.22-3.843-30.846-17.801z" fill="#d9d9d9"/>
<path d="m204.2 281.07-2.22 3.843 30.847 17.801 2.22-3.843-30.847-17.801z" fill="#91d5ff"/>
<path d="m204.2 281.07-2.22 3.843 30.847 17.801 2.22-3.843-30.847-17.801z" opacity=".6"/>
<path d="M196.688,234.087l16.449-9.497c1.343-.776,2.853-.887,4.13-.321c1.276.565,2.197,1.764,2.519,3.272l27.317,127.716c.022.089.033.178.033.267.011.088.011.188.011.277-.044.244-.233.488-.577.688-.777.444-2.031.444-2.808,0-.289-.178-.466-.377-.544-.588-.011-.044-.022-.078-.022-.122L215.901,228.374c-.066-.278-.177-.444-.255-.489-.078-.033-.278-.011-.522.134l-16.461,9.496" fill="#d9d9d9"/>
<path d="M210.496,295.205l-10.024-5.781c-.333-.188-.599-.654-.599-1.031v-.244c0-.378.266-.843.599-1.032l24.043-13.879c.333-.188.865-.188,1.198,0l10.023,5.78c.333.189.6.655.6,1.032v.233c0,.377-.267.843-.6,1.032l-24.042,13.878c-.333.2-.865.2-1.198.012Z" fill="#f5f5f5"/>
<path d="M211.096,293.929v1.42c.222,0,.433-.044.599-.144l12.021-6.934l12.021-6.934c.333-.189.6-.654.6-1.032v-.233c0-.188-.067-.399-.178-.588l-25.063,14.445Z" opacity=".15"/>
<path d="M200.051,287.561c-.111.188-.178.399-.178.588v.244c0,.377.266.843.599,1.031l10.024,5.78c.166.1.377.145.599.145v-1.42l-11.044-6.368Z" opacity=".1"/>
<path d="M206.155,274.891l-16.649-9.607c-.333-.189-.6-.655-.6-1.032v-.233c0-.377.267-.843.6-1.032l24.042-13.879c.333-.188.866-.188,1.199,0l16.649,9.608c.333.188.6.654.6,1.032v.233c0,.377-.267.843-.6,1.031l-24.042,13.879c-.333.2-.866.2-1.199,0Z" fill="#f5f5f5"/>
<path d="M206.754,273.626v1.42c.222,0,.433-.044.599-.144l12.021-6.934l12.021-6.934c.333-.188.6-.654.6-1.031v-.233c0-.189-.067-.4-.178-.588l-25.063,14.444Z" opacity=".15"/>
<path d="M189.072,263.42c-.111.189-.177.399-.177.588v.233c0,.377.266.843.599,1.032l16.65,9.607c.166.1.377.144.599.144v-1.42L189.072,263.42Z" opacity=".1"/>
<path d="M223.537,356.134l-10.024-5.78c-.333-.189-.599-.655-.599-1.032v-.233c0-.377.266-.843.599-1.032l24.043-13.878c.333-.189.865-.189,1.198,0l10.024,5.78c.333.188.599.654.599,1.031v.233c0,.378-.266.844-.599,1.032l-24.043,13.879c-.333.189-.877.189-1.198,0Z" fill="#f5f5f5"/>
<path d="M213.092,348.49c-.111.189-.178.4-.178.588v.233c0,.377.266.843.599,1.032l10.024,5.78c.166.1.377.144.599.144v-1.42l-11.044-6.357Z" opacity=".1"/>
<path d="M224.137,354.858v1.42c.211,0,.433-.044.599-.144l12.021-6.934l12.021-6.934c.333-.188.6-.654.6-1.031v-.233c0-.189-.067-.4-.178-.588l-25.063,14.444Z" opacity=".15"/>
<path d="M219.187,335.82l-10.023-5.78c-.333-.188-.6-.654-.6-1.031v-.233c0-.378.267-.843.6-1.032l24.042-13.879c.333-.189.866-.189,1.199,0l10.023,5.78c.333.189.599.655.599,1.032v.233c0,.377-.266.843-.599,1.032L220.386,335.82c-.333.189-.866.189-1.199,0Z" fill="#f5f5f5"/>
<path d="M208.742,328.177c-.111.188-.178.399-.178.588v.233c0,.377.267.843.6,1.032l10.023,5.78c.166.099.377.144.599.144v-1.42l-11.044-6.357Z" opacity=".1"/>
<path d="M219.787,334.545v1.42c.211,0,.433-.045.6-.144l12.021-6.934l12.021-6.934c.333-.189.599-.655.599-1.032v-.233c0-.189-.067-.399-.178-.588l-25.063,14.445Z" opacity=".15"/>
<path d="M214.845,315.518l-10.023-5.78c-.333-.189-.599-.655-.599-1.032v-.233c0-.377.266-.843.599-1.032l24.042-13.879c.333-.188.866-.188,1.199,0l10.023,5.78c.333.189.599.655.599,1.032v.233c0,.377-.266.843-.599,1.032l-24.042,13.879c-.333.188-.866.188-1.199,0Z" fill="#f5f5f5"/>
<path d="M204.4,307.863c-.111.188-.177.399-.177.588v.233c0,.377.266.843.599,1.032l5.006,2.895l5.006,2.896c.167.1.377.144.599.144v-1.42L204.4,307.863Z" opacity=".1"/>
<path d="M215.445,314.242v1.42c.211,0,.433-.044.6-.144l12.021-6.934l12.021-6.934c.333-.188.599-.654.599-1.032v-.233c0-.188-.066-.399-.177-.588l-25.064,14.445Z" opacity=".15"/>
<path d="m240.38 304.8-0.844-8.853-7.514 0.444s2.553 9.696 2.974 10.594c1.31 0.178 5.384-2.185 5.384-2.185z" fill="#ffa8a7"/>
<path d="M242.718,307.863c.056.322.034.666.012.987-.078,1.143-.145,2.297-.222,3.439-.034.466-.067.899-.167,1.354-.111.51-.033,1.109-.044,1.631-.011.566-.011,1.142-.011,1.708c0,.222-.045.511.011.732.066.233-3.586,2.386-5.062,3.218-.089.044-.166.089-.266.133-1.343.544-2.409-.533-2.409-.533-1.077-2.751.944-4.515.944-4.515s.188.011.133-1.442c-.011-1.032-.033-2.075-.144-3.107-.089-.754-.245-1.519-.389-2.263-.144-.787-.211-1.464-.433-2.518-.055-.266-.166-.544-.055-.799.077-.166.222-.299.366-.41c1.41-1.099,2.975-1.764,4.773-1.809.2-.011.422,0,.566.133.133.111.178.289.222.444.1.377.155.899.366,1.232.156.255.444.51.666.699.422.388.921.876,1.088,1.442.022.089.044.166.055.244Z" fill="#bae7ff"/>
<path d="M243.44,308.229c.688.255.533,2.13.122,3.938-.411,1.809-.633,2.441-.4,3.939.233,1.497.367,2.163-.233,2.729-.599.554-5.439,2.884-5.439,2.884s.933-2.318,1.021-5.647c.089-3.328.289-5.469,1.81-7c1.52-1.531,3.119-.843,3.119-.843Z" fill="#263238"/>
<path d="M231.263,318.835c0,0,1.909,1.498,4.084,1.72c2.176.222,2.276-.611,2.476-3.195.199-2.574.244-6.136,1.232-7.711.999-1.575,2.686-2.296,3.363-2.141.133-.078.81.41,1.032.71c0,0-1.487-.166-2.83,1.176s-1.554,4.138-1.587,6.69c-.034,2.54-.111,5.491-2.132,5.824-2.02.333-4.184-.51-5.538-1.608-.789-.633-.1-1.465-.1-1.465Z" fill="#37474f"/>
<path d="M235.503,316.017c-.177.233-.333.466-.466.699-.644,1.131-.71,2.318-.388,3.727-2.598-.199-3.375-1.608-3.375-1.608s-.155-1.287,1.321-2.252c.189-.122.377-.222.555-.3.011,0,.022-.011.022-.011c1.243-.544,2.331-.255,2.331-.255Z" fill="#91d5ff"/>
<path d="M235.646,315.074c0,0-.267.177-.3.477-.022.288.1.965.755,1.331.277.155.511.089.067-.444-.178-.21-.322-.366-.4-.61-.122-.355-.122-.754-.122-.754Z" fill="#263238"/>
<path d="M235.602,313.243c0,0-.199.2-.199.433-.012.233.432,1.187.91,1.387.477.21.222-.278-.011-.511-.122-.133-.356-.488-.5-.787-.133-.256-.2-.522-.2-.522Z" fill="#263238"/>
<path d="M235.458,311.269c0,0-.178.188-.111.454.044.2.855.766,1.154.81.211.034.378-.122,0-.377-.188-.122-.499-.299-.71-.488-.222-.189-.333-.399-.333-.399Z" fill="#263238"/>
<path d="M240.087,299.332c0,0-3.752-.5-6.971,1.841c0,0-.688-1.864-4.118-14.012-1.265-4.493-2.098-8.298-2.852-11.172-.844-3.206-1.144-4.482-1.321-6.756-.6-7.699-.788-30.165-1.11-33.06c0,0,15.984-4.882,15.995-4.849.754,3.473,1.354,7.134-.023,13.835-1.332,9.385-2.508,19.659-2.941,24.718c0,0,1.443,2.984,2.142,7.788.433,2.973,1.199,21.667,1.199,21.667Z" fill="#096dd9"/>
<path d="M205.645,307.03c-.299-.055-.144,1.01-.066,1.398.078.389.666,1.398,2.819,2.031c2.154.643,4.129.244,5.506.565c1.265.289,3.685,1.831,4.961,2.153c1.676.432,3.652.099,4.585-.411.355-.2,1.098-.721,1.121-1.076.022-.422.055-.888-.045-.888l-18.881-3.772Z" fill="#37474f"/>
<path d="M224.525,310.803c-.444.654-1.365,1.153-2.12,1.386-1.21.378-2.486.378-3.718.045-.722-.2-1.554-.633-2.209-.999-.777-.421-1.587-.632-2.431-.887-1.077-.322-3.152-.333-4.273-.455s-1.732-.333-2.642-.999c-.688-.51-.777-1.597-.81-2.474-.011-.188-.011-.466.066-.632.1-.2.233-.233.433-.344.444-.266.833-.621,1.299-.854.633-.322,3.13-1.087,4.151-.732l.544.122c.422.088,2.065.266,2.497.277.433.011.888-.078,1.233-.333.288-.222.499-.566.821-.732.355-.178.788-.122,1.177-.011.721.188,1.309.299,2.031.033.777-.288,1.465-.987,2.231-1.309.211-.089.51-.1.744.144.199.211.199.588.177.877-.066,1.009.156,2.008.267,3.017.166,1.376.987,2.874.532,4.86Z" fill="#bae7ff"/>
<path d="M213.704,303.88c-.455-.056-1.021.299-1.277.677-.155.233-.255.399-.355.665-.111.322-.189.666-.111.999.022.088.111.144.189.133.077-.011.155-.089.166-.167.089-.466.178-.887.422-1.287.111-.177.189-.332.355-.466.156-.122.344-.221.544-.277.056-.011.144-.044.255-.033.045,0,.134.011.134.011c0-.1-.078-.155-.111-.166-.067-.067-.111-.078-.211-.089Z" fill="#263238"/>
<path d="M215.103,304.08c-.233-.045-.488,0-.699.133-.244.155-.344.388-.466.643-.145.3-.256.61-.289.943-.022.167-.078.832.244.755.078-.023.133-.089.167-.156.033-.077.044-.155.055-.233.045-.344.122-.676.255-.998.145-.366.422-.832.844-.899.044-.011.1-.011.144-.011.011-.078-.077-.122-.144-.144-.044-.011-.078-.022-.111-.033Z" fill="#263238"/>
<path d="M216.324,303.758c-.177.044-.344.122-.466.255-.111.122-.244.344-.3.511-.133.355-.222.621-.244,1.042-.022.267,0,.544.122.788.045.1.145.2.245.155.111-.044.111-.21.133-.299.033-.178.033-.366.055-.544.067-.665.344-1.287.777-1.786.022-.022.056-.078.056-.078-.011-.044-.1-.066-.145-.066-.077-.011-.155,0-.233.022Z" fill="#263238"/>
<path d="M212.271,303.847c-.51-.089-1.72.443-2.508,1.941s-.888,3.972-.888,3.972-1.343-.078-2.609-1.509c-.333-.377-.566-.843-.655-1.342.034-1.065.4-1.809.911-2.252.899-.777,1.809-1.276,4.129-1.232c2.086.033,2.153.544,2.153.544l-.533-.122Z" fill="#91d5ff"/>
<path d="M222.816,296.402c0,0,.266,4.726.455,5.991.1.71-.411,1.454-2.531,2.086-1.487.444-3.063-.011-3.085-.422l-1.01-4.493l6.171-3.162Z" fill="#ffa8a7"/>
<path d="M240,232.378l-25.707,2.663c0,0-5.594,33.637-5.728,37.232-.1,2.607,7.781,27.89,7.781,27.89s4.884.666,6.927-1.753c-.222-3.394-.589-12.004-.822-15.099-.388-4.981-.766-6.9-2.175-11.826c0,0,6.893-17.165,9.224-24.986c11.566-4.371,10.5-14.121,10.5-14.121Z" fill="#0050b3"/>
<path d="M240,232.378l-25.707,2.663c0,0-5.594,33.637-5.728,37.232-.1,2.607,7.781,27.89,7.781,27.89s4.884.666,6.927-1.753c-.222-3.394-.589-12.004-.822-15.099-.388-4.981-.766-6.9-2.175-11.826c0,0,5.994-17.418,8.325-25.239C240.167,241.875,240,232.378,240,232.378Z" fill="#096dd9"/>
<g transform="translate(2e-6)">
<path d="m221.23 191.57 1.065 9.175 9.835-1.431-1.044-9.896-9.856 2.152z" fill="#ffa8a7"/>
<path d="m214.95 179.68s-2.264 4.36-2.009 4.682 1.909 0.843 1.909 0.843l0.1-5.525z" fill="#f28f8f"/>
<path d="M215.979,182.455c-1.465,0-2.653-1.154-2.653-2.574s1.188-2.574,2.653-2.574s2.653,1.154,2.653,2.574-1.188,2.574-2.653,2.574Zm0-4.582c-1.143,0-2.065.899-2.065,2.008s.922,2.008,2.065,2.008s2.065-.899,2.065-2.008-.933-2.008-2.065-2.008Z" fill="#263238"/>
<path d="M221.129,171.261c-4.517.921-5.816,2.851-6.238,9.807-.444,7.267.111,8.82,1.088,9.796.666.666,3.563.977,5.306.899c6.316-.299,8.724-2.319,11.2-5.98c2.897-4.304,3.662-10.129.555-12.514-4.385-3.361-10.079-2.385-11.911-2.008Z" fill="#ffa8a7"/>
<path d="M215.979,190.864c.666.666,3.563.977,5.305.899l-.133-1.021c0,0-2.719.322-5.172.122Z" fill="#f28f8f"/>
<path d="M213.57,179.337l8.025,1.01-.321.544-7.704-.966v-.588Z" fill="#263238"/>
<path d="M214.979,173.48c.211.133.433.233.678.299-.189.855.088,1.809.71,2.43s1.565.899,2.431.71c-.189.499-.133,1.076.133,1.531s.755.777,1.276.854c-.144-.022-.022,1.221.012,1.331.133.5.321.722.788.921c0,0,.71-2.684,3.052-2.352c2.353.344,2.664,3.24,1.188,5.004-1.477,1.753-2.842,1.098-2.864,1.087.133.067.189.921.233,1.087.144.499.344,1.454.6,1.92.51.943.643,1.653,2.375,2.418.843.377,4.728-.066,5.539-1.009c1.376-3.462,3.318-4.749,4.861-7.822.7-1.398,1.499-3.029,1.577-4.615.066-1.376.099-2.851-1.732-4.227.533-.621.61-1.586.178-2.296-.422-.699-1.321-1.088-2.12-.91.233-1.243-.4-2.596-1.488-3.229-.688-.399-1.532-.499-2.298-.31-.222.055-1.942.754-1.886,1.043-.234-1.276-1.421-2.297-2.72-2.352-1.299-.045-2.553.898-2.875,2.152-.644-.987-1.687-1.72-2.841-1.986-.999-.233-2.131-.1-2.875.599s-.855,2.23-.311,3.251c-.777-.067-1.532.144-2.076.81-.466.577-.71,1.264-.599,2.008.1.787.4,1.242,1.054,1.653Z" fill="#263238"/>
<path d="M220.952,183.098l.078-3.039c-.866-.023-1.588.643-1.61,1.475-.011.843.666,1.542,1.532,1.564Z" fill="#263238"/>
</g>
<path d="M234.947,194.547c2.742-.288,5.239.244,6.705,2.896c1.465,2.64,3.307,12.27,4.029,16.63.677,4.105.988,4.859-1.232,6.301-1.465.966-7.57,4.127-7.57,4.127l-1.932-29.954Z" fill="#ffa8a7"/>
<path d="M233.783,194.37c2.997-.344,5.328-.222,6.46.81c1.132,1.031,2.331,2.085,3.142,6.079.81,3.994,1.875,9.697,1.875,9.697s-2.22,4.67-10.311,4.016l-1.166-20.602Z" fill="#91d5ff"/>
<path d="M233.783,194.37c2.997-.344,5.328-.222,6.46.81c1.132,1.031,2.331,2.085,3.142,6.079.81,3.994,1.875,9.697,1.875,9.697s-2.22,4.67-10.311,4.016l-1.166-20.602Z" fill="#e6f7ff" opacity=".3"/>
<path d="M239.776,199.007c-.455-2.474-3.707-5.081-6.759-4.582c0,0-.722.056-1.388.178-.344,1.486-6.871,3.162-9.845,1.808-1.177.311-4.218.899-5.195,1.22-2.797.932-3.952,3.684-4.396,12.814c0,0,1.732,20.868,1.743,26.715c4.729,1.353,10.778,1.586,16.583.288c8.347-1.863,9.479-5.07,9.479-5.07l-.799-9.585c-.011-.011,1.599-18.183.577-23.786Z" fill="#f5f5f5"/>
<g transform="translate(1e-6 5e-6)">
<g transform="translate(1e-6)">
<path d="M177.906,186.382l1.998,11.727c.045.233.233.432.555.554.666.244,1.643.078,2.176-.377.266-.222.388-.477.344-.71l-1.998-11.726-3.075.532Z" fill="#455a64"/>
<path d="M181.514,188.878l-2.786,2.297-.822-4.793l3.086-.521.522,3.017Z" opacity=".15"/>
<path d="M180.936,176.187l.41,2.385l1.865-1.542.844,4.903c.255,1.476-.478,3.451-1.632,4.405l-3.274,2.718c-.544.444-1.088.599-1.532.466-.045-.011-1.998-.721-2.42-.899-.433-.189-.755-.643-.877-1.353l-.843-4.904l7.459-6.179Z" fill="#37474f"/>
<path d="M179.161,189.056l3.274-2.718c1.155-.954,1.887-2.929,1.632-4.416l-.844-4.903-7.448,6.179.844,4.904c.244,1.497,1.387,1.919,2.542.954Z" fill="#455a64"/>
<path d="m175.76 183.21 7.448-6.179-1.221-7.156-7.459 6.179 1.232 7.156z" fill="#f0f0f0"/>
<path d="m175.76 183.21-1.232-7.155-2.264-0.844 1.221 7.156 2.275 0.843z" fill="#ebebeb"/>
<path d="M176.131,185.339l7.448-6.179.166.976-7.437,6.224-.177-1.021Z" fill="#fafafa"/>
<path d="M176.131,185.339l-2.276-.843.178,1.032l2.276.832-.178-1.021Z" fill="#e6e6e6"/>
<path d="m172.65 177.4s0.987 1.586 2.375 1.442l-0.477-2.784-2.265-0.844 0.367 2.186z" fill="#91d5ff"/>
<path d="m172.65 177.4s0.987 1.586 2.375 1.442l-0.477-2.784-2.265-0.844 0.367 2.186z" fill="#096dd9" opacity=".5"/>
<path d="M175.01,178.849c0,0,1.587.41,2.753-.81.865-.899.754-3.528,2.641-3.894c1.332-.266,2.476.987,2.476.987l-.899-5.247-7.46,6.179.489,2.785Z" fill="#1890ff"/>
<path d="m181.99 169.87-2.275-0.843-7.448 6.179 2.264 0.843 7.459-6.179z" fill="#91d5ff"/>
<path d="m181.99 169.87-2.275-0.843-7.448 6.179 2.264 0.843 7.459-6.179z" fill="#69c0ff" opacity=".7"/>
</g>
<g transform="translate(0 1e-6)">
<path d="M181.957,191.497c1.121.066,2.12,1.087,2.153,1.863.034.777-1.631,1.332-1.631,1.332l-.522-3.195Z" fill="#f28f8f"/>
<path d="M216.81,197.565c-1.887.4-2.109-.144-7.17,2.918-4.706,2.851-12.898,7.555-15.962,9.308-3.274-2.995-6.77-7.633-8.047-9.874-.344-.599-.477-1.52-.411-2.208.178-1.919-.244-2.096-.31-3.827-.045-1.342.333-2.075.022-2.208-.4-.166-1.321-.133-1.865.921-.277.532-.366,1.021-.588,2.097c0,0-2.853,2.54-3.153-.011l-.555-3.218c-.865,0-2.475.278-2.886,2.219-.355,1.687-.588,5.37.666,7.733.6,1.131,3.142,2.086,4.54,3.006c1.565,1.032,6.327,11.228,9.246,13.191c1.799,1.176,2.964.966,5.284.178c5.206-1.764,17.926-8.121,17.926-8.121s5.317-3.162,3.263-12.104Z" fill="#ffa8a7"/>
<path d="m217.29 197.44c-4.118-0.089-6.438 2.086-10.945 4.693-4.795 2.762-6.482 3.739-6.482 3.739s-1.265 6.257 3.53 9.108l10.855-5.048c3.042-1.964 5.184-7.422 3.042-12.492z" fill="#91d5ff"/>
<path d="m217.29 197.44c-4.118-0.089-6.438 2.086-10.945 4.693-4.795 2.762-6.482 3.739-6.482 3.739s-1.265 6.257 3.53 9.108l10.855-5.048c3.042-1.964 5.184-7.422 3.042-12.492z" fill="#e6f7ff" opacity=".3"/>
</g>
</g>
<path d="M199.351,252.781l-30.736,83.583-.011.022-.066.189c-.089.178-.256.333-.5.488-.777.444-2.031.444-2.808,0-.333-.2-.522-.444-.577-.688-.011-.077-.011-.155,0-.233.011-.199.044-.388.122-.577l30.846-84.149c.378-1.031,1.51-1.553,2.553-1.176c1.033.366,1.554,1.509,1.177,2.541Z" fill="#d9d9d9"/>
<path d="M198.662,237.515c-.91.533-1.543,1.942-1.321,2.963l27.317,127.704c.022.1.044.211.044.311.012.067.012.144,0,.222-.044.244-.233.499-.577.699-.777.444-2.031.444-2.808,0-.289-.167-.466-.366-.544-.577c0-.011,0-.011-.011-.022l-.033-.167L193.445,241.31c-.577-2.685.833-5.869,3.219-7.234" fill="#d9d9d9"/>
<path d="M157.75,345.983h-28.859l1.298,20.502c-.022,1.908,1.221,3.816,3.719,5.303c4.995,2.962,13.153,3.051,18.226.2c2.553-1.443,3.829-3.351,3.829-5.27l1.787-20.735Z" fill="#bae7ff"/>
<path d="M133.163,339.604c-5.672,3.195-5.727,8.465-.122,11.782c5.606,3.317,14.741,3.417,20.424.222c5.672-3.196,5.727-8.465.122-11.782-5.617-3.318-14.752-3.417-20.424-.222Z" fill="#455a64"/>
<path d="M156.495,345.739c0,.377-.078.754-.2,1.131-.444,1.354-1.621,2.608-3.452,3.639-2.564,1.432-5.972,2.197-9.612,2.164-3.63-.045-7.027-.877-9.557-2.374-1.776-1.054-2.942-2.319-3.341-3.639-.145-.389-.2-.799-.2-1.21.033-1.764,1.321-3.45,3.663-4.759c2.542-1.442,5.971-2.219,9.601-2.163c3.641.033,7.037.876,9.568,2.374c2.287,1.375,3.552,3.084,3.53,4.837Z" fill="#e6f7ff"/>
<path d="M143.375,348.024c-3.629-.033-7.048.743-9.601,2.186-.045.022-.089.055-.133.077.011.011.022.011.033.022c2.531,1.487,5.927,2.319,9.557,2.375c3.641.033,7.048-.744,9.612-2.164.045-.022.089-.055.133-.089-.011-.011-.022-.011-.033-.022-2.531-1.486-5.916-2.33-9.568-2.385Z" fill="#1890ff"/>
<path d="M122.875,366.524c-3.629-.033-1.322,1.034-3.875,2.476c6.226,1.291,0-1.5,0-1.5c1.259-.629-4-1.264-2,1.21s2.101,2.418,5.731,2.474c3.641.033.705.236,3.269-1.184v-1.29-.71c-2.531-1.487.527-1.42-3.125-1.476Z" fill="#1890ff"/>
<path d="M144.308,352.662c-.977-.211-1.876-.544-2.631-.988-.944-.566-1.565-1.242-1.787-1.941-.078-.211-.111-.433-.111-.644c0-.288.078-.566.211-.843-2.331.322-4.485.976-6.216,1.964-.045.022-.089.055-.133.077.011.012.022.012.033.023c2.531,1.486,5.927,2.318,9.557,2.374.355,0,.721-.011,1.077-.022Z" opacity=".15"/>
<path d="M148.792,353.693c.566-.322,1.021-.055,1.01.599-.011.644-.466,1.431-1.032,1.753s-1.021.056-1.01-.599.466-1.431,1.032-1.753Z" fill="#263238"/>
<path d="M129.223,351.718c-1.244,3.184-2.209,7.522.577,9.586.155.111.3.21.444.31l-.011,1.343c-.367-.222-.744-.477-1.11-.744-4.14-3.062-1.61-9.774-.022-13.035l.122,2.54Z" fill="#455a64"/>
<path d="M149.269,355.135c-.155.322-4.14,7.933-10.678,9.464-.755.177-1.498.266-2.253.266-2.031,0-4.063-.633-6.094-1.908l.011-1.343c2.709,1.875,5.428,2.519,8.092,1.908c6.038-1.42,9.912-8.831,9.934-8.897.145-.277.489-.377.755-.233.278.122.389.455.233.743Z" fill="#455a64"/>
<path d="M142.5,357.5c.931-1.392.206-4.897-1.5-5-1.752-.105-3.064,3.562-2.103,5c.846,1.265,2.758,1.265,3.603,0Z" fill="#1890ff"/>
<path d="M141.42,357.616c.93-1.392,1.375-4.423-.5-5-1.5-.461-2.984,3.446-2.023,4.884.845,1.265,1.677,1.381,2.523.116Z" fill="#147bd9"/>
<path d="M292.228,454.049l-44.963-26.25c-1.02-.6-1.02-1.562,0-2.163L354.983,362.95c1.02-.601,2.689-.601,3.709,0l45.043,26.21c1.02.6,1.02,1.562,0,2.163L295.924,454.049c-1.007.601-2.663.601-3.696,0Z" fill="#fafafa"/>
<path d="M350.303,376.467l-5.134,2.965c-.519.292-1.344.292-1.862,0l-1.636-.944c-.519-.293-.838-1.011-.705-1.596l17.038-80.613c.119-.585.638-1.29,1.157-1.596l5.134-2.964c.519-.293,1.343-.293,1.862,0l1.636.944c.519.292.838,1.01.705,1.595L351.46,374.872c-.133.585-.652,1.303-1.157,1.595Z" fill="#f0f0f0"/>
<path d="M350.303,376.467l-5.134,2.965c-.519.292-.838.066-.705-.519L361.502,298.3c.12-.585.638-1.29,1.157-1.596l5.134-2.964c.519-.293.838-.067.705.518L351.46,374.872c-.133.585-.652,1.303-1.157,1.595Z" fill="#d9d9d9"/>
<path d="m347.57 371.2 1.517-7.192 3.498-2.007 32.373 18.678 1.517 8.947-3.485 2.007-35.42-20.433z" fill="#d9d9d9"/>
<path d="m382.99 391.64-35.42-20.433 1.517-7.192 32.373 18.678 1.53 8.947z" fill="#f0f0f0"/>
<path d="M388.756,398.655l-5.134,2.965c-.519.292-1.344.292-1.862,0l-1.636-.944c-.519-.293-1.011-1.011-1.117-1.596L361.889,298.313c-.093-.585.239-1.302.758-1.595l5.134-2.964c.519-.293,1.343-.293,1.862,0l1.636.943c.519.293,1.011,1.011,1.117,1.596L389.514,397.06c.093.585-.239,1.303-.758,1.595Z" fill="#37474f"/>
<path d="M361.902,298.3l.652,3.815l16.479,96.965c.107.585.599,1.303,1.104,1.596l1.636.944c.519.292,1.357.292,1.862,0l5.121-2.965c.519-.306.851-1.01.758-1.595L372.449,296.638l-.066-.345c-.106-.585-.599-1.303-1.104-1.596l-1.636-.943c-.519-.293-1.357-.293-1.862,0l-5.134,2.964c-.505.293-.851.997-.745,1.582Z" fill="#d9d9d9"/>
<path d="M372.384,296.292L389.502,397.06c.093.584-.239,1.302-.758,1.595l-5.134,2.964c-.519.293-1.011.067-1.117-.518L365.375,300.32c-.093-.585.239-1.302.758-1.595l5.134-2.964c.519-.293,1.024-.054,1.117.531Z" fill="#f0f0f0"/>
<path d="M269.867,422.876l-5.134,2.964c-.519.293-1.343.293-1.862,0l-1.636-.944c-.519-.292-.838-1.01-.705-1.595l17.038-80.614c.12-.585.639-1.289,1.157-1.595l5.134-2.964c.519-.293,1.344-.293,1.862,0l1.636.943c.519.293.838,1.011.705,1.596L271.024,421.28c-.119.585-.638,1.303-1.157,1.596Z" fill="#f0f0f0"/>
<path d="M269.867,422.876l-5.134,2.964c-.519.293-.838.067-.705-.518l17.038-80.614c.12-.585.639-1.29,1.157-1.595l5.134-2.965c.519-.292.838-.066.705.519L271.024,421.28c-.119.585-.638,1.303-1.157,1.596Z" fill="#d9d9d9"/>
<path d="m267.05 417.73 1.516-7.192 3.498-2.008 32.374 18.678 1.516 8.947-3.485 2.021-35.419-20.446z" fill="#d9d9d9"/>
<path d="m302.47 438.18-35.419-20.445 1.516-7.192 32.387 18.691 1.516 8.946z" fill="#f0f0f0"/>
<path d="M308.33,445.077l-5.134,2.964c-.519.293-1.343.293-1.862,0l-1.636-.943c-.519-.293-1.011-1.011-1.117-1.596L281.463,344.735c-.093-.585.239-1.303.758-1.595l5.134-2.965c.519-.292,1.343-.292,1.862,0l1.636.944c.519.293,1.011,1.011,1.117,1.596l17.118,100.767c.093.571-.239,1.289-.758,1.595Z" fill="#37474f"/>
<path d="M281.476,344.722l.652,3.815l16.479,96.965c.107.585.599,1.303,1.104,1.595l1.636.944c.519.293,1.357.293,1.862,0l5.121-2.964c.519-.306.851-1.011.758-1.596L292.024,343.047l-.067-.346c-.106-.585-.598-1.303-1.104-1.595l-1.636-.944c-.518-.293-1.356-.293-1.862,0l-5.134,2.964c-.505.293-.851,1.011-.745,1.596Z" fill="#d9d9d9"/>
<path d="M291.959,342.701l17.117,100.767c.094.585-.239,1.303-.758,1.595l-5.134,2.965c-.518.292-1.011.066-1.117-.519L284.949,346.742c-.093-.585.24-1.303.758-1.595l5.134-2.965c.519-.306,1.024-.066,1.118.519Z" fill="#f0f0f0"/>
<path d="m277.79 357.78 108.39-62.535-1.769-1.023-108.37 62.547 1.756 1.011z" fill="#ff7875"/>
<path d="m277.79 357.78 108.39-62.535-1.769-1.023-108.37 62.547 1.756 1.011z" fill="#fff" opacity=".4"/>
<path d="m277.79 357.77 5.267 31.28 108.39-62.534-5.267-31.28-108.39 62.534z" fill="#ff7875"/>
<path d="m276.03 356.76 5.254 31.281 1.769 1.01-5.267-31.28-1.756-1.011z" fill="#d9d9d9"/>
<path d="m277.12 363.28 2.913 17.309 1.756 1.01-2.9-17.295-1.769-1.024z" fill="#cf1322"/>
<path d="m277.12 363.28 2.913 17.309 1.756 1.01-2.9-17.295" opacity=".2"/>
<path d="m287.74 352.04-4.682 37.01-5.267-31.28 9.949-5.73z" fill="#ebebeb"/>
<path d="m381.49 332.25 4.682-37.01 5.267 31.281-9.949 5.729z" fill="#ebebeb"/>
<path d="m301.25 378.55 4.682-37.01-10.76 6.195-4.682 37.024 10.76-6.209z" fill="#ebebeb"/>
<path d="m319.45 368.05 4.681-37.01-10.76 6.194-4.681 37.024 10.76-6.208z" fill="#ebebeb"/>
<path d="m337.66 357.55 4.681-37.01-10.76 6.208-4.682 37.01 10.761-6.208z" fill="#ebebeb"/>
<path d="m355.85 347.06 4.682-37.023-10.76 6.208-4.682 37.01 10.76-6.195z" fill="#ebebeb"/>
<path d="m374.06 336.56 4.682-37.024-10.76 6.208-4.682 37.01 10.76-6.194z" fill="#ebebeb"/>
<path d="m295.17 347.74-1.769-1.01 10.774-6.208 1.755 1.023-10.76 6.195z" fill="#fafafa"/>
<path d="m313.37 337.24-1.756-1.01 10.76-6.208 1.756 1.023-10.76 6.195z" fill="#fafafa"/>
<path d="m331.58 326.75-1.769-1.023 10.773-6.208 1.756 1.023-10.76 6.208z" fill="#fafafa"/>
<path d="m349.77 316.24-1.755-1.024 10.76-6.208 1.755 1.024-10.76 6.208z" fill="#fafafa"/>
<path d="m367.98 305.74-1.769-1.024 10.773-6.208 1.756 1.024-10.76 6.208z" fill="#fafafa"/>
<path d="m277.79 357.77-1.756-1.01 9.936-5.743 1.769 1.024-9.949 5.729z" fill="#fafafa"/>
<path d="m278.9 364.3 2.899 17.296 108.39-62.548-2.899-17.295-108.39 62.547z" fill="#cf1322"/>
<path d="M284.171,375.797c-.626-.307-1.049-1.003-1.254-2.09l-1.419-7.497c-.063-.345.143-.641.603-.916l.488-.276c.46-.262.729-.227.792.117l1.387,7.339c.079.437.241.74.484.908s.511.162.832-.017c.306-.179.527-.449.66-.837.133-.389.167-.802.074-1.225l-1.387-7.339c-.063-.344.128-.641.603-.916l.474-.262c.46-.262.729-.227.792.117l1.419,7.498c.205,1.086.111,2.072-.28,2.97-.391.899-1.054,1.604-1.946,2.113-.935.511-1.695.619-2.322.313Z" fill="#fff"/>
<path d="M290.483,372.52l-1.955-10.319c-.063-.344.129-.641.603-.916l.307-.179c.153-.096.293-.139.406-.128.099-.002.213.076.315.22l3.155,4.019c.159.223.378.565.655,1.024l.041-.054c-.165-.515-.286-.925-.335-1.216l-.976-5.14c-.064-.344.128-.641.602-.916l.293-.165c.46-.262.729-.228.792.117l1.955,10.319c.063.344-.143.641-.603.916l-.237.138c-.153.096-.293.139-.406.141s-.227-.075-.315-.22l-3.341-4.175c-.101-.118-.276-.407-.525-.841l-.054.081c.164.462.255.806.302,1.045l1.009,5.298c.063.345-.143.655-.603.916l-.293.166c-.46.248-.729.214-.792-.131Z" fill="#fff"/>
<path d="M297.826,368.704c-.086-.065-.16-.21-.206-.435l-1.892-10.001c-.047-.225-.036-.411.017-.559.054-.147.15-.255.303-.351l2.288-1.309c1.046-.593,1.892-.57,2.569.095.676.651,1.181,1.931,1.542,3.812.362,1.894.379,3.45.065,4.666s-1.002,2.121-2.034,2.713l-2.287,1.308c-.153.11-.28.112-.365.061Zm2.188-3.421c.419-.248.678-.678.764-1.318s.011-1.596-.241-2.894c-.237-1.285-.508-2.144-.799-2.577-.29-.433-.645-.519-1.063-.271l-.767.441l1.339,7.06.767-.441Z" fill="#fff"/>
<path d="M304.758,364.736c-.086-.064-.159-.209-.206-.434l-1.892-10.001c-.046-.226-.036-.412.017-.559.054-.148.151-.256.304-.352l3.556-2.025c.126-.069.225-.058.297.047.087.091.147.29.195.568l.095.503c.048.279.066.504.027.665-.025.16-.107.268-.233.337l-2.12,1.212.441,2.331l1.883-1.074c.112-.069.225-.058.297.047.073.092.147.289.195.568l.095.503c.048.278.066.504.027.664-.039.161-.107.282-.233.351l-1.883,1.074.49,2.61l2.134-1.213c.125-.068.224-.057.297.048.072.091.147.289.194.568l.095.503c.048.278.066.504.041.664s-.093.268-.219.337l-3.556,2.025c-.111.082-.238.098-.338.033Z" fill="#fff"/>
<path d="M310.048,361.36l-1.923-10.16c-.047-.225-.036-.411.017-.558.054-.148.164-.27.331-.366l2.009-1.144c.739-.427,1.372-.519,1.913-.277.54.229.921.926,1.141,2.052.236,1.258.033,2.379-.624,3.376l.015.066c.198.023.398.152.6.374s.376.471.509.774l1.295,2.687.074.171c.062.292-.172.575-.66.864l-.419.235c-.418.247-.7.24-.804-.024l-1.225-2.702c-.116-.197-.232-.314-.345-.352-.114-.037-.268-.008-.464.103l-.292.165.693,3.643c.063.344-.143.654-.631.93l-.404.234c-.46.275-.729.254-.806-.091Zm1.403-7.447c.182-.097.305-.298.383-.606.079-.307.071-.679-.008-1.143-.08-.451-.212-.741-.37-.884s-.342-.152-.551-.042l-.642.359.505,2.689.683-.373Z" fill="#fff"/>
<path d="M318.291,355.785c-.69-.638-1.224-1.957-1.603-3.971-.363-1.934-.366-3.529-.024-4.772.356-1.257,1.099-2.19,2.214-2.837.377-.22.741-.36,1.078-.42.267-.045.44.111.503.482.079.41.101.809.052,1.182-.049.387-.157.588-.34.605-.282.046-.548.131-.799.282-.474.275-.788.774-.901,1.494-.126.734-.079,1.69.156,2.896.236,1.205.52,2.037.868,2.495.348.459.787.543,1.302.24.154-.083.279-.165.376-.26s.222-.217.388-.367c.027-.027.055-.054.097-.081.167-.097.31-.033.441.19.131.224.237.554.316.991.031.159.034.319.009.452-.025.147-.093.281-.231.43-.125.136-.291.299-.513.476-.208.177-.445.328-.682.466-1.115.673-2.018.665-2.707.027Z" fill="#fff"/>
<path d="M321.946,348.851c-.725-3.841-.042-6.368,2.064-7.567c1.032-.592,1.893-.556,2.611.068s1.251,1.93,1.629,3.917c.378,1.973.382,3.582.026,4.826s-1.043,2.148-2.075,2.74c-2.106,1.199-3.529-.129-4.255-3.984Zm4.494,1.134c.135-.322.197-.762.185-1.346-.012-.585-.111-1.341-.286-2.295-.173-.927-.357-1.642-.55-2.13s-.396-.776-.61-.892c-.214-.115-.467-.084-.76.082-.293.165-.5.409-.649.717-.134.322-.21.776-.198,1.361.011.584.097,1.341.285,2.281.174.941.357,1.642.564,2.129.193.489.397.79.624.892.214.116.482.084.761-.081.293-.153.499-.396.634-.718Z" fill="#fff"/>
<path d="M330.301,349.802l-1.954-10.319c-.063-.345.128-.641.602-.916l.307-.179c.153-.096.293-.139.406-.128.113-.002.214.076.315.22l3.155,4.019c.16.223.378.564.641,1.024l.041-.054c-.165-.515-.286-.925-.334-1.216l-.977-5.14c-.063-.344.128-.641.602-.916l.293-.165c.461-.262.729-.228.793.117l1.954,10.319c.063.344-.143.641-.603.916l-.222.138c-.154.096-.294.138-.407.141-.113.002-.227-.076-.314-.22l-3.342-4.175c-.101-.118-.276-.407-.524-.841l-.055.081c.164.462.256.806.303,1.044l1.008,5.299c.063.344-.128.654-.602.916l-.293.165c-.461.262-.73.214-.793-.13Z" fill="#fff"/>
<path d="M338.162,345.736c-.408.062-.733.015-.962-.153-.144-.131-.232-.288-.264-.474-.062-.304-.055-.637.008-1.024s.157-.615.311-.697c.069-.042.182-.044.338-.007.156.023.283.047.354.046.353.046.648-.013.885-.151.251-.138.459-.354.609-.61.15-.269.2-.589.121-.986-.062-.292-.151-.503-.281-.66-.13-.143-.287-.247-.443-.297-.17-.049-.397-.098-.694-.132-.693-.119-1.234-.348-1.608-.713s-.64-.971-.812-1.845c-.175-.967-.094-1.86.257-2.664.35-.818.916-1.441,1.683-1.869.28-.152.574-.264.897-.323.323-.06.591-.065.79.01.17.05.272.208.319.433.048.278.068.597.033.97-.035.359-.115.587-.254.67-.056.041-.183.056-.366.073-.352.021-.619.079-.828.203-.321.179-.528.396-.608.65-.079.255-.103.494-.056.733.079.397.211.66.411.776s.483.203.88.262l.311.047c.637.107,1.121.35,1.453.702.331.353.582.933.739,1.741.111.609.123,1.22.023,1.834-.101.627-.315,1.203-.643,1.741-.327.539-.784.973-1.37,1.304-.419.208-.811.349-1.233.41Z" fill="#fff"/>
<path d="M343.816,342.1l-1.639-8.69-1.339.758c-.126.069-.225.058-.298-.047-.086-.091-.146-.29-.194-.568l-.095-.503c-.048-.279-.066-.504-.027-.665.039-.16.107-.281.233-.35l4.574-2.604c.126-.069.239-.058.311.034.087.091.147.289.209.567l.095.504c.048.278.066.504.027.664s-.107.281-.247.351l-1.353.771l1.64,8.69c.063.344-.128.641-.602.916l-.489.276c-.474.275-.728.24-.806-.104Z" fill="#fff"/>
<path d="M348.156,339.621l-1.923-10.16c-.047-.226-.037-.412.017-.559.053-.148.164-.269.345-.366l2.008-1.144c.739-.427,1.386-.519,1.927-.277.541.228.921.912,1.142,2.064.236,1.259.033,2.38-.624,3.377l.015.066c.198.023.398.152.6.374s.376.484.509.787l1.295,2.687.074.171c.062.292-.172.576-.66.865l-.418.247c-.433.248-.701.24-.805-.024l-1.224-2.701c-.117-.197-.232-.315-.346-.352-.113-.038-.268-.008-.463.102l-.293.166.693,3.642c.063.345-.142.655-.63.93l-.405.234c-.488.249-.771.215-.834-.129Zm1.389-7.434c.182-.097.304-.299.383-.619.078-.308.085-.68-.009-1.13-.093-.451-.212-.754-.37-.884-.158-.143-.356-.152-.551-.042l-.642.358.519,2.689.67-.372Z" fill="#fff"/>
<path d="M355.007,335.403c-.627-.307-1.05-1.003-1.255-2.089l-1.418-7.498c-.063-.344.142-.654.602-.916l.488-.276c.461-.262.729-.227.793.117l1.387,7.339c.079.437.24.74.484.921.229.169.511.163.818-.016.306-.179.527-.449.66-.838.133-.388.168-.787.074-1.224l-1.387-7.339c-.063-.344.142-.641.602-.916l.461-.262c.46-.262.729-.227.792.117l1.419,7.498c.205,1.086.111,2.072-.28,2.971-.391.885-1.054,1.603-1.947,2.113-.893.496-1.666.604-2.293.298Z" fill="#fff"/>
<path d="M361.763,331c-.689-.638-1.223-1.957-1.602-3.971-.363-1.934-.366-3.529-.024-4.773.355-1.257,1.099-2.189,2.214-2.836.377-.22.74-.36,1.078-.42.267-.045.439.111.503.482.079.41.101.809.052,1.182-.049.387-.158.588-.341.605-.281.046-.547.131-.798.282-.474.275-.789.774-.901,1.494-.127.734-.08,1.69.156,2.895.236,1.206.52,2.038.868,2.496.347.459.786.543,1.302.24.154-.083.279-.165.376-.26s.221-.217.387-.367c.028-.027.056-.054.098-.081.167-.097.309-.033.441.19.131.224.236.554.316.991.031.159.034.319.009.452-.026.147-.094.281-.232.43-.124.136-.29.298-.512.476-.222.177-.445.328-.682.465-1.129.674-2.032.666-2.708.028Z" fill="#fff"/>
<path d="M367.999,328.31l-1.654-8.69-1.339.758c-.126.069-.225.058-.298-.047-.086-.091-.146-.29-.194-.568l-.095-.503c-.048-.279-.066-.504-.027-.665.025-.16.107-.281.233-.35l4.574-2.604c.126-.069.239-.058.311.034.087.091.147.289.195.568l.095.503c.047.278.066.504.027.664-.025.16-.107.282-.247.351l-1.353.771l1.654,8.69c.063.344-.142.641-.602.916l-.503.276c-.446.275-.714.24-.777-.104Z" fill="#fff"/>
<path d="M372.309,325.843l-1.954-10.319c-.064-.358.127-.668.602-.93l.502-.289c.46-.262.715-.213.793.144l1.954,10.319c.063.358-.128.667-.588.929l-.502.289c-.475.263-.729.214-.807-.143Z" fill="#fff"/>
<path d="M374.315,318.982c-.725-3.842-.042-6.368,2.064-7.567c1.018-.579,1.893-.556,2.611.068.704.624,1.252,1.929,1.63,3.916.377,1.974.381,3.583.025,4.826-.356,1.244-1.043,2.149-2.075,2.741-2.106,1.199-3.515-.13-4.255-3.984Zm4.508,1.133c.135-.321.197-.761.185-1.346s-.111-1.341-.285-2.295c-.174-.927-.357-1.641-.551-2.13-.193-.488-.396-.776-.61-.892-.214-.115-.467-.083-.76.082s-.499.409-.648.718c-.135.321-.211.775-.199,1.36s.097,1.341.271,2.281c.174.941.357,1.642.564,2.13.193.488.397.79.625.892.228.115.481.083.76-.082.293-.152.5-.396.648-.718Z" fill="#fff"/>
<path d="M382.672,319.933l-1.955-10.319c-.063-.344.143-.641.603-.916l.307-.179c.153-.096.293-.139.406-.128.113-.002.213.076.315.22l3.155,4.019c.159.223.378.565.641,1.025l.041-.054c-.166-.529-.286-.925-.335-1.217l-.976-5.139c-.064-.345.128-.641.602-.917l.293-.165c.46-.262.729-.227.792.117l1.955,10.319c.063.345-.143.655-.603.917l-.223.124c-.153.096-.294.138-.42.141-.113.002-.214-.076-.315-.22l-3.341-4.175c-.102-.118-.277-.407-.525-.854l-.055.081c.164.462.256.806.303,1.044l1.008,5.299c.063.344-.142.641-.602.916l-.293.166c-.446.288-.701.24-.778-.105Z" fill="#fff"/>
</svg>